<svg id="carrotIcon" xmlns="http://www.w3.org/2000/svg" width="30" height="30" viewBox="0 0 880 878.438">
  <defs>
    <style>
      .carrot {
        fill: #febe5d;
      }

      .carrot, .leaves {
        fill-rule: evenodd;
      }

      .leaves {
        fill: #43c0bb;
      }
    </style>
  </defs>
  <path id="carrotBody" class="carrot" d="M526,282c102.173,53.928,151.283,172.218,99,286-21.87,47.6-61.43,81.331-100,97-56.779,23.067-173,86-173,86s-48.54-52.24-96-97c-11.24-10.6-29.344-12.628-40-1-9.621,10.5-16.2,25.54,1,42,20.506,19.625,81,80,81,80S81.513,881.468,70,889s-40.833-3.785-49-17-9.145-17.228-2-35S239,387,239,387l85,85c20.357,16.728,39-2,39-2,12.727-15.6,0-33,0-33,32,31-94-98-94-98S351.639,219.8,526,282Z"/>
  <path id="carrotLeaf" class="leaves" d="M617,278c56.158,48.925,72.979,59.18,127.523,64.42C832.728,350.9,889.01,276.361,889,276c0,0-33.371-49.995-107-64-56.128-10.676-97,10-97,10s21.209-60.9,12-99C682.122,61.445,632,13,632,13s-54.3,44.226-66,111C557.473,172.685,577.84,243.883,617,278Z"/>
</svg>
