<svg xmlns="http://www.w3.org/2000/svg" id="canvas" viewBox="285.029 369.330 1131.745 124.491"><path d="M 314.15,381.85 C 313.53 382.16, 313.29 382.60, 312.61 383.80 C 311.94 385.00, 311.54 385.70, 310.77 387.86 C 310.01 390.03, 309.74 391.54, 308.79 394.63 C 307.83 397.73, 307.35 399.61, 306.01 403.33 C 304.68 407.06, 303.79 409.18, 302.12 413.27 C 300.45 417.35, 299.42 419.63, 297.66 423.76 C 295.90 427.89, 294.90 430.09, 293.33 433.90 C 291.76 437.71, 290.87 439.61, 289.82 442.81 C 288.77 446.02, 288.27 447.49, 288.09 449.94 C 287.91 452.38, 288.11 453.44, 288.93 455.03 C 289.75 456.62, 290.50 457.23, 292.19 457.90 C 293.88 458.57, 295.04 458.62, 297.38 458.36 C 299.73 458.11, 301.15 457.65, 303.93 456.63 C 306.71 455.62, 308.23 454.67, 311.28 453.28 C 314.32 451.90, 316.00 451.07, 319.15 449.72 C 322.30 448.36, 323.98 447.68, 327.02 446.53 C 330.05 445.38, 331.60 444.91, 334.34 443.97 C 337.08 443.02, 338.36 442.61, 340.72 441.80 C 343.09 441.00, 344.15 440.67, 346.15 439.94 C 348.16 439.20, 349.07 438.90, 350.77 438.14 C 352.48 437.38, 353.24 437.04, 354.67 436.14 C 356.10 435.24, 356.77 434.76, 357.93 433.65 C 359.09 432.54, 359.64 431.92, 360.46 430.60 C 361.29 429.29, 361.65 428.51, 362.06 427.07 C 362.47 425.62, 362.61 424.81, 362.52 423.38 C 362.43 421.95, 362.28 421.12, 361.59 419.91 C 360.91 418.70, 360.35 418.04, 359.09 417.33 C 357.83 416.63, 356.98 416.35, 355.28 416.39 C 353.59 416.43, 352.57 416.64, 350.63 417.54 C 348.70 418.44, 347.59 419.17, 345.61 420.87 C 343.63 422.58, 342.54 423.76, 340.74 426.07 C 338.94 428.37, 337.97 429.79, 336.61 432.40 C 335.24 435.01, 334.59 436.51, 333.91 439.11 C 333.24 441.70, 333.05 443.08, 333.24 445.38 C 333.43 447.69, 333.74 448.86, 334.87 450.62 C 335.99 452.39, 336.88 453.24, 338.87 454.20 C 340.86 455.16, 342.19 455.49, 344.81 455.41 C 347.43 455.33, 348.97 454.99, 351.97 453.79 C 354.97 452.59, 356.56 451.59, 359.81 449.41 C 363.06 447.24, 364.81 445.88, 368.23 442.91 C 371.66 439.93, 373.47 438.15, 376.96 434.54 C 380.44 430.93, 382.26 428.85, 385.67 424.86 C 389.08 420.87, 390.83 418.65, 394.03 414.57 C 397.22 410.49, 398.82 408.31, 401.64 404.47 C 404.46 400.63, 405.82 398.66, 408.14 395.37 C 410.47 392.07, 411.70 390.58, 413.27 388.00 C 414.83 385.42, 415.49 384.08, 415.98 382.47 C 416.46 380.86, 416.27 380.16, 415.70 379.96 C 415.13 379.75, 414.31 379.99, 413.15 381.43 C 411.99 382.87, 411.25 384.19, 409.88 387.15 C 408.52 390.12, 407.91 392.34, 406.34 396.27 C 404.77 400.19, 403.79 402.53, 402.03 406.77 C 400.28 411.01, 399.31 413.34, 397.57 417.45 C 395.83 421.56, 394.93 423.70, 393.34 427.32 C 391.76 430.95, 390.91 432.73, 389.65 435.59 C 388.39 438.45, 387.85 439.73, 387.05 441.62 C 386.25 443.51, 385.96 444.06, 385.63 445.03 C 385.29 446.00, 385.43 446.15, 385.37 446.45 C 385.31 446.76, 385.38 446.43, 385.34 446.55 C 385.31 446.67, 385.04 446.87, 385.19 447.04 C 385.34 447.22, 385.56 447.56, 386.09 447.44 C 386.62 447.31, 387.04 447.29, 387.85 446.43 C 388.67 445.56, 389.16 445.00, 390.17 443.11 C 391.17 441.21, 391.69 439.88, 392.88 436.95 C 394.07 434.03, 394.64 432.15, 396.09 428.47 C 397.55 424.78, 398.43 422.64, 400.15 418.54 C 401.88 414.43, 402.85 412.11, 404.73 407.94 C 406.62 403.77, 407.70 401.48, 409.57 397.70 C 411.43 393.93, 412.69 392.01, 414.04 389.06 C 415.39 386.10, 415.96 384.73, 416.32 382.91 C 416.69 381.10, 416.42 380.33, 415.86 379.97 C 415.30 379.60, 414.68 379.85, 413.54 381.08 C 412.41 382.31, 411.74 383.58, 410.19 386.13 C 408.64 388.67, 407.90 390.43, 405.79 393.80 C 403.67 397.18, 402.34 399.15, 399.61 403.01 C 396.89 406.87, 395.31 409.05, 392.15 413.11 C 389.00 417.17, 387.25 419.37, 383.85 423.29 C 380.44 427.22, 378.62 429.26, 375.12 432.74 C 371.63 436.21, 369.80 437.92, 366.37 440.68 C 362.95 443.43, 361.17 444.66, 357.99 446.51 C 354.82 448.35, 353.18 448.94, 350.50 449.89 C 347.81 450.84, 346.60 451.05, 344.56 451.25 C 342.52 451.44, 341.67 451.35, 340.30 450.87 C 338.93 450.39, 338.40 449.97, 337.72 448.84 C 337.05 447.72, 336.89 446.95, 336.93 445.25 C 336.97 443.54, 337.19 442.43, 337.93 440.31 C 338.66 438.18, 339.30 436.87, 340.62 434.62 C 341.94 432.37, 342.87 431.09, 344.51 429.07 C 346.15 427.05, 347.18 426.01, 348.83 424.52 C 350.47 423.02, 351.38 422.42, 352.76 421.58 C 354.13 420.74, 354.75 420.56, 355.69 420.32 C 356.63 420.09, 356.93 420.18, 357.45 420.42 C 357.98 420.66, 358.09 420.93, 358.31 421.54 C 358.52 422.15, 358.56 422.60, 358.53 423.48 C 358.49 424.36, 358.43 424.93, 358.13 425.94 C 357.84 426.94, 357.63 427.53, 357.05 428.52 C 356.47 429.51, 356.11 430.01, 355.23 430.90 C 354.35 431.80, 353.86 432.21, 352.67 432.98 C 351.48 433.75, 350.82 434.06, 349.27 434.74 C 347.71 435.41, 346.85 435.70, 344.89 436.37 C 342.93 437.05, 341.86 437.33, 339.49 438.11 C 337.12 438.89, 335.80 439.28, 333.04 440.27 C 330.28 441.26, 328.75 441.88, 325.69 443.08 C 322.62 444.28, 320.91 444.98, 317.72 446.27 C 314.52 447.56, 312.79 448.35, 309.71 449.51 C 306.63 450.68, 304.94 451.18, 302.30 452.11 C 299.67 453.04, 298.42 453.56, 296.54 454.15 C 294.66 454.75, 293.96 455.10, 292.91 455.06 C 291.85 455.03, 291.56 454.95, 291.27 454.00 C 290.98 453.06, 291.09 452.37, 291.45 450.34 C 291.80 448.30, 292.13 446.90, 293.06 443.83 C 293.99 440.77, 294.65 438.79, 296.09 434.99 C 297.53 431.20, 298.52 428.99, 300.27 424.87 C 302.02 420.76, 303.07 418.48, 304.86 414.43 C 306.64 410.37, 307.59 408.27, 309.19 404.60 C 310.80 400.93, 311.65 399.15, 312.88 396.09 C 314.11 393.03, 314.73 391.56, 315.35 389.30 C 315.97 387.03, 315.92 386.17, 315.99 384.76 C 316.05 383.36, 316.05 382.86, 315.69 382.28 C 315.32 381.70, 314.76 381.55, 314.15 381.85" style="stroke: black; fill: black;"/><path d="M 382.07,430.68 C 382.18 431.23, 382.31 431.52, 383.08 432.03 C 383.84 432.54, 384.41 432.90, 385.89 433.21 C 387.36 433.53, 388.37 433.63, 390.46 433.61 C 392.55 433.59, 393.86 433.49, 396.33 433.11 C 398.80 432.73, 400.18 432.42, 402.81 431.71 C 405.45 430.99, 406.87 430.56, 409.50 429.53 C 412.13 428.51, 413.51 427.88, 415.97 426.60 C 418.43 425.31, 419.67 424.57, 421.81 423.10 C 423.94 421.62, 424.95 420.78, 426.65 419.21 C 428.35 417.64, 429.13 416.78, 430.30 415.26 C 431.46 413.73, 431.89 412.87, 432.46 411.58 C 433.03 410.30, 433.15 409.76, 433.15 408.84 C 433.15 407.91, 432.88 407.51, 432.47 406.97 C 432.05 406.43, 431.54 406.21, 431.08 406.14 C 430.62 406.08, 430.22 406.25, 430.16 406.66 C 430.10 407.07, 430.61 407.87, 430.78 408.19 C 430.95 408.50, 431.01 408.29, 431.02 408.24 C 431.03 408.19, 430.94 407.95, 430.85 407.94 C 430.76 407.94, 430.86 407.85, 430.56 408.23 C 430.25 408.60, 430.00 408.90, 429.33 409.82 C 428.66 410.73, 428.29 411.51, 427.21 412.79 C 426.13 414.07, 425.48 414.84, 423.93 416.20 C 422.38 417.57, 421.45 418.32, 419.46 419.63 C 417.47 420.93, 416.31 421.59, 414.00 422.74 C 411.69 423.89, 410.39 424.47, 407.92 425.37 C 405.46 426.27, 404.12 426.66, 401.67 427.25 C 399.22 427.84, 397.94 428.06, 395.69 428.30 C 393.45 428.55, 392.29 428.48, 390.43 428.48 C 388.57 428.48, 387.72 428.29, 386.39 428.31 C 385.06 428.34, 384.56 428.41, 383.78 428.61 C 382.99 428.80, 382.83 428.86, 382.49 429.27 C 382.14 429.69, 381.95 430.13, 382.07 430.68" style="stroke: black; fill: black;"/><path d="M 445.08,393.52 C 444.59 393.65, 444.33 394.44, 444.63 394.83 C 444.94 395.23, 446.13 395.64, 446.62 395.51 C 447.11 395.38, 447.37 394.60, 447.07 394.20 C 446.76 393.80, 445.57 393.40, 445.08 393.52" style="stroke: black; fill: black;"/><path d="M 465.67,414.36 C 465.35 413.75, 464.83 413.39, 463.77 413.01 C 462.72 412.63, 461.98 412.46, 460.39 412.48 C 458.81 412.50, 457.71 412.60, 455.85 413.11 C 453.99 413.63, 452.92 414.12, 451.08 415.06 C 449.23 416.00, 448.20 416.55, 446.63 417.81 C 445.05 419.06, 444.19 419.80, 443.19 421.32 C 442.20 422.83, 441.83 423.73, 441.63 425.38 C 441.43 427.02, 441.57 427.92, 442.19 429.52 C 442.80 431.12, 443.43 431.95, 444.71 433.37 C 446.00 434.79, 446.98 435.44, 448.62 436.62 C 450.25 437.81, 451.30 438.33, 452.89 439.29 C 454.48 440.25, 455.39 440.69, 456.56 441.40 C 457.72 442.11, 458.26 442.34, 458.72 442.83 C 459.17 443.32, 459.23 443.41, 458.84 443.84 C 458.44 444.28, 457.97 444.44, 456.75 444.99 C 455.53 445.54, 454.61 445.90, 452.74 446.59 C 450.86 447.27, 449.59 447.73, 447.39 448.40 C 445.20 449.06, 443.83 449.41, 441.76 449.91 C 439.68 450.41, 438.52 450.61, 437.01 450.91 C 435.49 451.21, 434.97 451.20, 434.16 451.41 C 433.36 451.61, 433.25 451.81, 432.98 451.95 C 432.71 452.09, 432.94 452.04, 432.81 452.11 C 432.68 452.18, 432.40 452.06, 432.32 452.28 C 432.24 452.50, 432.09 452.79, 432.41 453.20 C 432.74 453.62, 432.97 454.00, 433.96 454.33 C 434.94 454.67, 435.59 454.84, 437.33 454.87 C 439.06 454.91, 440.34 454.84, 442.63 454.51 C 444.92 454.18, 446.37 453.88, 448.78 453.22 C 451.18 452.57, 452.58 452.18, 454.66 451.24 C 456.73 450.29, 457.78 449.73, 459.16 448.49 C 460.53 447.26, 461.08 446.48, 461.52 445.08 C 461.97 443.67, 461.88 442.84, 461.40 441.47 C 460.92 440.11, 460.31 439.47, 459.12 438.26 C 457.93 437.05, 456.99 436.53, 455.45 435.41 C 453.90 434.30, 452.92 433.75, 451.39 432.70 C 449.86 431.65, 448.99 431.11, 447.81 430.16 C 446.63 429.20, 446.06 428.78, 445.49 427.92 C 444.92 427.06, 444.80 426.70, 444.96 425.86 C 445.11 425.01, 445.43 424.58, 446.28 423.70 C 447.13 422.81, 447.86 422.29, 449.23 421.41 C 450.60 420.54, 451.54 420.04, 453.13 419.34 C 454.71 418.64, 455.63 418.32, 457.17 417.90 C 458.70 417.48, 459.54 417.47, 460.81 417.24 C 462.07 417.01, 462.59 416.99, 463.50 416.76 C 464.41 416.53, 464.92 416.57, 465.36 416.09 C 465.79 415.61, 465.99 414.98, 465.67 414.36" style="stroke: black; fill: black;"/><path d="M 556.44,425.30 C 556.77 424.71, 556.82 424.11, 556.52 423.21 C 556.23 422.30, 555.89 421.64, 554.96 420.78 C 554.03 419.92, 553.31 419.41, 551.87 418.90 C 550.44 418.39, 549.61 418.21, 547.80 418.23 C 546.00 418.25, 544.96 418.36, 542.84 419.00 C 540.73 419.65, 539.48 420.17, 537.23 421.47 C 534.99 422.78, 533.69 423.73, 531.64 425.52 C 529.58 427.31, 528.47 428.47, 526.96 430.44 C 525.45 432.42, 524.73 433.55, 524.09 435.39 C 523.46 437.24, 523.39 438.25, 523.80 439.68 C 524.20 441.10, 524.78 441.82, 526.14 442.54 C 527.50 443.25, 528.57 443.43, 530.58 443.25 C 532.60 443.08, 533.85 442.65, 536.21 441.64 C 538.57 440.64, 539.90 439.77, 542.38 438.22 C 544.85 436.68, 546.27 435.65, 548.58 433.91 C 550.88 432.17, 552.21 431.09, 553.88 429.54 C 555.56 427.98, 556.28 427.06, 556.95 426.13 C 557.63 425.21, 557.54 424.81, 557.25 424.91 C 556.95 425.00, 556.37 425.29, 555.48 426.62 C 554.59 427.95, 553.81 429.06, 552.79 431.56 C 551.77 434.06, 551.47 435.87, 550.38 439.10 C 549.30 442.33, 548.68 444.17, 547.37 447.70 C 546.07 451.22, 545.33 453.15, 543.86 456.72 C 542.39 460.30, 541.62 462.21, 540.03 465.57 C 538.45 468.93, 537.60 470.65, 535.93 473.51 C 534.25 476.37, 533.29 477.67, 531.64 479.87 C 530.00 482.07, 529.18 483.07, 527.69 484.51 C 526.19 485.95, 525.42 486.45, 524.17 487.07 C 522.92 487.69, 522.34 487.76, 521.43 487.60 C 520.52 487.44, 520.17 487.14, 519.62 486.27 C 519.07 485.39, 518.82 484.78, 518.69 483.24 C 518.55 481.71, 518.52 480.74, 518.96 478.59 C 519.40 476.45, 519.71 475.15, 520.89 472.52 C 522.08 469.89, 522.86 468.34, 524.89 465.44 C 526.92 462.55, 528.25 460.99, 531.05 458.05 C 533.84 455.12, 535.50 453.59, 538.86 450.77 C 542.22 447.95, 544.13 446.55, 547.84 443.95 C 551.54 441.36, 553.56 440.09, 557.39 437.80 C 561.22 435.52, 563.26 434.44, 566.98 432.52 C 570.69 430.59, 572.63 429.71, 575.96 428.18 C 579.30 426.65, 580.99 426.07, 583.67 424.87 C 586.34 423.67, 587.57 423.16, 589.35 422.20 C 591.14 421.24, 591.84 420.86, 592.60 420.08 C 593.36 419.29, 593.42 418.84, 593.13 418.25 C 592.85 417.66, 592.29 417.22, 591.18 417.15 C 590.07 417.07, 589.16 417.16, 587.59 417.87 C 586.02 418.57, 585.06 419.27, 583.32 420.66 C 581.59 422.04, 580.56 422.99, 578.92 424.80 C 577.28 426.61, 576.34 427.70, 575.12 429.70 C 573.90 431.71, 573.32 432.87, 572.83 434.83 C 572.34 436.79, 572.28 437.86, 572.69 439.51 C 573.10 441.16, 573.62 442.00, 574.88 443.07 C 576.15 444.15, 577.13 444.58, 579.02 444.88 C 580.91 445.19, 582.15 445.09, 584.33 444.59 C 586.51 444.09, 587.77 443.53, 589.94 442.39 C 592.10 441.25, 593.27 440.46, 595.15 438.87 C 597.04 437.28, 598.02 436.30, 599.37 434.46 C 600.72 432.62, 601.30 431.56, 601.91 429.68 C 602.52 427.80, 602.62 426.75, 602.41 425.04 C 602.21 423.34, 601.78 422.45, 600.88 421.16 C 599.97 419.88, 599.18 419.31, 597.87 418.63 C 596.56 417.96, 595.61 417.69, 594.33 417.80 C 593.04 417.90, 592.14 418.32, 591.44 419.16 C 590.74 420.00, 590.51 420.94, 590.83 422.01 C 591.14 423.07, 591.65 423.78, 593.01 424.49 C 594.37 425.20, 595.40 425.42, 597.62 425.57 C 599.84 425.73, 601.29 425.62, 604.11 425.25 C 606.92 424.88, 608.56 424.38, 611.69 423.73 C 614.82 423.08, 616.58 422.66, 619.74 422.00 C 622.89 421.34, 624.75 421.11, 627.45 420.41 C 630.16 419.71, 631.42 419.22, 633.26 418.49 C 635.10 417.75, 636.02 417.34, 636.64 416.73 C 637.25 416.13, 637.15 415.72, 636.34 415.45 C 635.52 415.19, 634.52 415.25, 632.55 415.39 C 630.58 415.52, 629.23 415.61, 626.49 416.13 C 623.76 416.65, 621.99 417.32, 618.88 417.99 C 615.77 418.65, 614.00 419.03, 610.94 419.46 C 607.88 419.90, 606.22 419.96, 603.58 420.16 C 600.93 420.36, 599.62 420.38, 597.71 420.46 C 595.81 420.54, 595.08 420.47, 594.07 420.55 C 593.06 420.63, 592.90 420.65, 592.66 420.85 C 592.43 421.04, 592.58 421.31, 592.89 421.53 C 593.21 421.75, 593.59 421.79, 594.25 421.93 C 594.91 422.07, 595.46 421.96, 596.21 422.24 C 596.97 422.52, 597.49 422.70, 598.04 423.32 C 598.58 423.95, 598.89 424.38, 598.94 425.38 C 599.00 426.39, 598.91 427.05, 598.33 428.34 C 597.75 429.63, 597.25 430.44, 596.05 431.84 C 594.84 433.24, 593.97 434.07, 592.31 435.34 C 590.65 436.61, 589.58 437.25, 587.75 438.20 C 585.92 439.14, 584.82 439.53, 583.13 440.06 C 581.44 440.58, 580.57 440.74, 579.30 440.82 C 578.03 440.91, 577.49 440.87, 576.79 440.50 C 576.10 440.12, 575.88 439.83, 575.84 438.94 C 575.79 438.06, 575.95 437.40, 576.55 436.06 C 577.16 434.71, 577.69 433.78, 578.86 432.21 C 580.04 430.64, 580.90 429.67, 582.43 428.20 C 583.97 426.72, 585.00 425.99, 586.56 424.83 C 588.12 423.66, 589.05 423.28, 590.24 422.35 C 591.43 421.42, 591.96 420.97, 592.50 420.18 C 593.04 419.39, 593.14 418.85, 592.93 418.38 C 592.73 417.92, 592.48 417.74, 591.46 417.86 C 590.45 417.97, 589.74 418.23, 587.86 418.96 C 585.99 419.69, 584.75 420.22, 582.10 421.50 C 579.44 422.78, 577.88 423.68, 574.60 425.38 C 571.31 427.09, 569.38 428.01, 565.66 430.04 C 561.94 432.06, 559.88 433.16, 556.01 435.50 C 552.13 437.84, 550.09 439.12, 546.30 441.74 C 542.51 444.36, 540.55 445.76, 537.06 448.59 C 533.57 451.41, 531.84 452.94, 528.84 455.88 C 525.84 458.83, 524.41 460.37, 522.06 463.32 C 519.71 466.28, 518.61 467.78, 517.10 470.66 C 515.59 473.54, 515.02 475.07, 514.52 477.72 C 514.01 480.37, 514.10 481.78, 514.59 483.93 C 515.07 486.07, 515.67 487.11, 516.93 488.46 C 518.18 489.80, 519.14 490.29, 520.84 490.64 C 522.55 490.98, 523.59 490.85, 525.46 490.17 C 527.32 489.49, 528.32 488.85, 530.18 487.25 C 532.04 485.65, 533.00 484.57, 534.75 482.16 C 536.50 479.75, 537.27 478.24, 538.92 475.19 C 540.56 472.15, 541.38 470.38, 542.96 466.94 C 544.55 463.49, 545.31 461.56, 546.84 457.97 C 548.37 454.38, 549.12 452.46, 550.61 448.99 C 552.10 445.53, 552.86 443.74, 554.28 440.64 C 555.71 437.55, 556.75 436.07, 557.72 433.50 C 558.70 430.93, 559.03 429.63, 559.16 427.81 C 559.29 425.98, 559.09 425.19, 558.37 424.37 C 557.64 423.56, 556.96 423.40, 555.52 423.73 C 554.08 424.06, 553.11 424.77, 551.16 426.04 C 549.21 427.31, 548.05 428.47, 545.78 430.07 C 543.50 431.67, 542.13 432.62, 539.79 434.02 C 537.46 435.43, 536.15 436.10, 534.13 437.10 C 532.10 438.10, 531.11 438.48, 529.69 439.02 C 528.27 439.57, 527.70 439.78, 527.03 439.83 C 526.35 439.88, 526.23 439.84, 526.31 439.27 C 526.40 438.70, 526.64 438.18, 527.45 436.99 C 528.26 435.80, 528.92 434.88, 530.38 433.32 C 531.84 431.75, 532.88 430.72, 534.75 429.18 C 536.61 427.65, 537.79 426.80, 539.71 425.64 C 541.62 424.48, 542.67 424.00, 544.32 423.38 C 545.97 422.75, 546.76 422.59, 547.95 422.51 C 549.15 422.42, 549.53 422.60, 550.31 422.94 C 551.10 423.29, 551.28 423.73, 551.87 424.23 C 552.47 424.73, 552.68 425.07, 553.28 425.45 C 553.87 425.83, 554.21 426.17, 554.84 426.14 C 555.47 426.11, 556.10 425.89, 556.44 425.30" style="stroke: black; fill: black;"/><path d="M 693.59,385.22 C 693.08 385.39, 692.98 385.52, 692.47 386.31 C 691.95 387.10, 691.69 387.54, 691.02 389.16 C 690.36 390.78, 690.02 391.88, 689.16 394.41 C 688.31 396.94, 687.96 398.65, 686.75 401.79 C 685.54 404.94, 684.70 406.81, 683.10 410.14 C 681.50 413.47, 680.47 415.33, 678.76 418.44 C 677.04 421.56, 675.94 423.11, 674.54 425.71 C 673.14 428.31, 672.40 429.53, 671.75 431.42 C 671.10 433.31, 670.98 434.13, 671.28 435.16 C 671.58 436.19, 672.10 436.52, 673.24 436.58 C 674.37 436.64, 675.26 436.36, 676.94 435.46 C 678.62 434.56, 679.61 433.67, 681.63 432.08 C 683.65 430.50, 684.73 429.23, 687.05 427.52 C 689.36 425.81, 690.80 424.91, 693.19 423.54 C 695.59 422.18, 696.92 421.56, 699.03 420.70 C 701.15 419.84, 702.21 419.55, 703.78 419.24 C 705.34 418.93, 706.00 418.96, 706.85 419.14 C 707.70 419.33, 707.89 419.55, 708.03 420.17 C 708.17 420.80, 708.05 421.20, 707.56 422.26 C 707.08 423.32, 706.68 424.03, 705.60 425.47 C 704.53 426.92, 703.79 427.87, 702.17 429.49 C 700.56 431.12, 699.49 432.06, 697.52 433.59 C 695.55 435.12, 694.34 435.92, 692.31 437.12 C 690.29 438.32, 689.15 438.85, 687.37 439.60 C 685.59 440.35, 684.68 440.54, 683.43 440.87 C 682.18 441.19, 681.67 441.17, 681.11 441.22 C 680.55 441.26, 680.50 441.24, 680.62 441.08 C 680.74 440.91, 680.98 440.84, 681.72 440.39 C 682.46 439.95, 682.94 439.60, 684.31 438.84 C 685.68 438.09, 686.57 437.53, 688.58 436.61 C 690.59 435.70, 691.85 435.21, 694.36 434.27 C 696.88 433.33, 698.33 432.81, 701.16 431.90 C 704.00 430.99, 705.56 430.58, 708.53 429.71 C 711.50 428.85, 713.08 428.44, 716.00 427.59 C 718.91 426.73, 720.43 426.36, 723.10 425.44 C 725.76 424.52, 727.08 424.00, 729.30 423.00 C 731.53 421.99, 732.58 421.48, 734.21 420.41 C 735.84 419.34, 736.55 418.80, 737.45 417.67 C 738.35 416.54, 738.67 415.88, 738.71 414.75 C 738.75 413.63, 738.49 412.86, 737.66 412.03 C 736.84 411.20, 736.05 410.75, 734.58 410.59 C 733.10 410.43, 732.08 410.58, 730.28 411.23 C 728.48 411.89, 727.40 412.52, 725.56 413.88 C 723.71 415.24, 722.68 416.18, 721.06 418.03 C 719.45 419.88, 718.59 421.01, 717.49 423.12 C 716.38 425.23, 715.88 426.46, 715.54 428.59 C 715.21 430.72, 715.21 431.89, 715.81 433.75 C 716.41 435.61, 716.99 436.58, 718.54 437.89 C 720.08 439.20, 721.17 439.79, 723.52 440.29 C 725.88 440.79, 727.36 440.90, 730.31 440.38 C 733.25 439.86, 734.89 439.14, 738.24 437.69 C 741.58 436.23, 743.39 435.27, 747.03 433.10 C 750.66 430.93, 752.63 429.60, 756.41 426.83 C 760.18 424.06, 762.18 422.47, 765.90 419.26 C 769.62 416.05, 771.54 414.24, 774.99 410.79 C 778.44 407.35, 780.19 405.46, 783.16 402.03 C 786.12 398.60, 787.54 396.81, 789.84 393.66 C 792.14 390.51, 793.25 388.98, 794.66 386.28 C 796.07 383.57, 796.48 382.27, 796.90 380.13 C 797.31 377.98, 797.26 377.01, 796.73 375.55 C 796.20 374.09, 795.60 373.40, 794.24 372.83 C 792.88 372.26, 791.86 372.12, 789.94 372.71 C 788.03 373.29, 786.82 373.81, 784.67 375.75 C 782.51 377.68, 781.53 379.24, 779.18 382.38 C 776.83 385.53, 775.49 387.45, 772.91 391.47 C 770.33 395.49, 768.90 397.86, 766.27 402.49 C 763.65 407.11, 762.28 409.72, 759.80 414.59 C 757.32 419.46, 756.09 422.09, 753.89 426.83 C 751.69 431.57, 750.66 434.03, 748.79 438.27 C 746.93 442.52, 746.06 444.62, 744.57 448.05 C 743.07 451.47, 742.24 452.98, 741.32 455.41 C 740.40 457.83, 740.15 458.84, 739.97 460.16 C 739.79 461.48, 740.02 461.87, 740.44 462.01 C 740.85 462.15, 741.42 461.86, 742.05 460.85 C 742.67 459.83, 743.12 458.85, 743.54 456.92 C 743.97 455.00, 743.99 453.58, 744.16 451.22 C 744.33 448.86, 744.28 447.41, 744.37 445.10 C 744.47 442.80, 744.52 441.59, 744.64 439.70 C 744.76 437.81, 744.77 436.96, 744.97 435.64 C 745.17 434.33, 745.19 433.86, 745.62 433.14 C 746.06 432.41, 746.23 432.33, 747.14 432.02 C 748.06 431.72, 748.62 431.78, 750.21 431.61 C 751.79 431.44, 752.81 431.42, 755.06 431.16 C 757.31 430.91, 758.71 430.81, 761.46 430.35 C 764.20 429.89, 765.77 429.54, 768.80 428.88 C 771.84 428.22, 773.51 427.82, 776.63 427.06 C 779.75 426.29, 781.44 425.89, 784.40 425.07 C 787.35 424.24, 788.89 423.82, 791.41 422.94 C 793.92 422.06, 795.14 421.56, 796.99 420.67 C 798.84 419.78, 799.68 419.38, 800.64 418.49 C 801.61 417.61, 801.86 417.07, 801.83 416.25 C 801.80 415.43, 801.40 414.84, 800.49 414.40 C 799.59 413.97, 798.74 413.79, 797.30 414.08 C 795.86 414.38, 794.92 414.84, 793.30 415.87 C 791.68 416.90, 790.75 417.72, 789.20 419.22 C 787.66 420.73, 786.77 421.66, 785.56 423.39 C 784.34 425.13, 783.74 426.13, 783.13 427.89 C 782.53 429.65, 782.34 430.62, 782.52 432.20 C 782.69 433.78, 783.04 434.63, 784.01 435.77 C 784.98 436.92, 785.78 437.44, 787.36 437.94 C 788.94 438.44, 790.00 438.49, 791.90 438.25 C 793.79 438.02, 794.91 437.63, 796.84 436.76 C 798.76 435.89, 799.80 435.22, 801.54 433.90 C 803.27 432.58, 804.18 431.74, 805.52 430.15 C 806.86 428.57, 807.45 427.62, 808.23 425.98 C 809.02 424.34, 809.21 423.45, 809.44 421.97 C 809.68 420.49, 809.60 419.78, 809.40 418.57 C 809.20 417.37, 808.96 416.68, 808.45 415.95 C 807.94 415.22, 807.41 414.91, 806.86 414.92 C 806.31 414.93, 805.81 415.44, 805.71 415.99 C 805.60 416.54, 805.69 417.11, 806.35 417.68 C 807.00 418.24, 807.61 418.51, 808.98 418.82 C 810.34 419.12, 811.30 419.12, 813.16 419.19 C 815.02 419.26, 816.15 419.23, 818.27 419.18 C 820.40 419.13, 821.62 419.03, 823.78 418.93 C 825.93 418.84, 827.13 418.73, 829.05 418.69 C 830.96 418.65, 831.94 418.65, 833.37 418.73 C 834.80 418.82, 835.45 418.85, 836.19 419.14 C 836.92 419.42, 837.05 419.54, 837.03 420.17 C 837.00 420.79, 836.69 421.19, 836.06 422.25 C 835.42 423.31, 834.85 424.06, 833.86 425.47 C 832.87 426.89, 832.14 427.85, 831.09 429.32 C 830.03 430.79, 829.25 431.58, 828.58 432.81 C 827.91 434.04, 827.69 434.71, 827.75 435.47 C 827.81 436.23, 828.16 436.55, 828.86 436.60 C 829.57 436.65, 830.23 436.46, 831.29 435.73 C 832.35 435.01, 833.00 434.28, 834.18 432.98 C 835.35 431.68, 835.92 430.67, 837.17 429.24 C 838.42 427.80, 839.17 426.99, 840.43 425.80 C 841.68 424.60, 842.34 424.03, 843.45 423.25 C 844.57 422.48, 845.04 422.21, 846.00 421.90 C 846.96 421.59, 847.32 421.61, 848.24 421.70 C 849.16 421.80, 849.53 422.05, 850.60 422.38 C 851.67 422.72, 852.23 423.04, 853.59 423.39 C 854.94 423.74, 855.72 423.96, 857.38 424.14 C 859.04 424.32, 859.97 424.41, 861.90 424.29 C 863.84 424.18, 864.94 424.06, 867.04 423.57 C 869.14 423.09, 870.30 422.70, 872.39 421.87 C 874.48 421.04, 875.60 420.50, 877.49 419.43 C 879.38 418.36, 880.38 417.73, 881.82 416.51 C 883.27 415.28, 883.97 414.57, 884.70 413.31 C 885.43 412.04, 885.65 411.32, 885.48 410.18 C 885.31 409.04, 884.92 408.30, 883.86 407.61 C 882.80 406.93, 881.88 406.64, 880.17 406.76 C 878.47 406.89, 877.34 407.25, 875.33 408.23 C 873.32 409.20, 872.13 410.02, 870.11 411.64 C 868.09 413.27, 866.92 414.33, 865.23 416.36 C 863.54 418.39, 862.65 419.61, 861.67 421.78 C 860.68 423.96, 860.29 425.18, 860.31 427.25 C 860.32 429.31, 860.59 430.43, 861.74 432.11 C 862.90 433.79, 863.86 434.61, 866.07 435.64 C 868.28 436.67, 869.78 437.03, 872.80 437.26 C 875.82 437.48, 877.63 437.16, 881.17 436.76 C 884.71 436.37, 887.03 435.92, 890.50 435.27 C 893.97 434.61, 895.90 434.31, 898.52 433.47 C 901.15 432.64, 902.66 431.85, 903.60 431.08 C 904.54 430.31, 904.41 429.87, 903.24 429.63 C 902.06 429.38, 900.41 429.52, 897.72 429.87 C 895.03 430.22, 893.19 430.80, 889.80 431.38 C 886.41 431.95, 884.12 432.47, 880.79 432.73 C 877.45 433.00, 875.77 432.86, 873.12 432.69 C 870.47 432.52, 869.28 432.39, 867.53 431.88 C 865.79 431.37, 865.14 431.04, 864.38 430.15 C 863.62 429.26, 863.55 428.71, 863.74 427.43 C 863.93 426.15, 864.35 425.31, 865.35 423.72 C 866.35 422.14, 867.17 421.12, 868.74 419.49 C 870.31 417.86, 871.41 416.94, 873.20 415.60 C 874.99 414.25, 876.10 413.66, 877.69 412.75 C 879.28 411.85, 880.09 411.59, 881.15 411.08 C 882.21 410.58, 882.57 410.41, 882.99 410.22 C 883.41 410.03, 883.45 409.95, 883.24 410.12 C 883.04 410.29, 882.76 410.47, 881.96 411.08 C 881.17 411.68, 880.58 412.27, 879.26 413.16 C 877.94 414.06, 877.06 414.65, 875.36 415.54 C 873.65 416.43, 872.61 416.91, 870.74 417.63 C 868.87 418.35, 867.82 418.70, 866.00 419.14 C 864.17 419.58, 863.24 419.70, 861.60 419.83 C 859.96 419.96, 859.22 419.90, 857.81 419.78 C 856.40 419.66, 855.80 419.48, 854.55 419.23 C 853.29 418.98, 852.76 418.75, 851.53 418.53 C 850.30 418.32, 849.69 418.15, 848.40 418.15 C 847.10 418.15, 846.44 418.17, 845.05 418.52 C 843.66 418.86, 842.95 419.12, 841.45 419.89 C 839.96 420.66, 839.15 421.21, 837.58 422.37 C 836.00 423.53, 835.14 424.31, 833.60 425.68 C 832.06 427.05, 831.07 427.78, 829.86 429.22 C 828.64 430.67, 828.03 431.58, 827.55 432.91 C 827.06 434.24, 827.09 435.06, 827.42 435.87 C 827.74 436.69, 828.26 437.02, 829.16 436.99 C 830.07 436.96, 830.77 436.63, 831.95 435.71 C 833.13 434.79, 833.85 433.91, 835.09 432.39 C 836.32 430.88, 837.15 429.88, 838.13 428.14 C 839.11 426.40, 839.61 425.39, 839.99 423.68 C 840.37 421.97, 840.43 421.03, 840.01 419.59 C 839.59 418.15, 839.08 417.44, 837.88 416.49 C 836.68 415.54, 835.76 415.29, 834.01 414.85 C 832.26 414.42, 831.20 414.43, 829.13 414.31 C 827.06 414.20, 825.85 414.28, 823.67 414.28 C 821.50 414.27, 820.31 414.35, 818.27 414.30 C 816.23 414.26, 815.19 414.19, 813.48 414.04 C 811.78 413.89, 811.00 413.63, 809.74 413.55 C 808.48 413.48, 808.01 413.41, 807.20 413.66 C 806.38 413.92, 806.11 414.26, 805.66 414.82 C 805.21 415.38, 805.03 415.90, 804.95 416.48 C 804.87 417.07, 805.08 417.21, 805.28 417.74 C 805.48 418.27, 805.83 418.43, 805.95 419.13 C 806.06 419.84, 806.10 420.27, 805.84 421.26 C 805.59 422.25, 805.39 422.90, 804.67 424.10 C 803.96 425.30, 803.45 426.03, 802.28 427.25 C 801.10 428.47, 800.29 429.16, 798.81 430.20 C 797.33 431.25, 796.42 431.77, 794.88 432.48 C 793.34 433.20, 792.46 433.44, 791.11 433.78 C 789.76 434.11, 789.10 434.18, 788.14 434.15 C 787.19 434.12, 786.81 434.05, 786.35 433.64 C 785.89 433.23, 785.77 432.92, 785.87 432.09 C 785.96 431.26, 786.17 430.67, 786.83 429.49 C 787.50 428.31, 788.04 427.51, 789.19 426.20 C 790.33 424.89, 791.14 424.09, 792.55 422.92 C 793.95 421.76, 794.89 421.26, 796.22 420.38 C 797.55 419.49, 798.27 419.22, 799.18 418.52 C 800.08 417.81, 800.43 417.43, 800.75 416.87 C 801.06 416.31, 801.10 415.94, 800.77 415.72 C 800.44 415.51, 800.15 415.53, 799.10 415.81 C 798.05 416.08, 797.31 416.47, 795.50 417.10 C 793.69 417.74, 792.50 418.18, 790.06 419.00 C 787.61 419.81, 786.16 420.35, 783.29 421.18 C 780.42 422.02, 778.76 422.47, 775.71 423.18 C 772.65 423.89, 771.00 424.23, 768.01 424.72 C 765.02 425.20, 763.48 425.28, 760.76 425.62 C 758.05 425.96, 756.71 426.07, 754.43 426.43 C 752.15 426.78, 751.12 426.88, 749.35 427.39 C 747.58 427.90, 746.84 428.16, 745.58 428.96 C 744.32 429.77, 743.84 430.26, 743.03 431.42 C 742.21 432.59, 742.00 433.25, 741.50 434.81 C 741.01 436.36, 740.91 437.22, 740.54 439.18 C 740.17 441.15, 740.02 442.34, 739.67 444.64 C 739.31 446.94, 739.06 448.35, 738.76 450.69 C 738.46 453.03, 738.17 454.36, 738.18 456.35 C 738.19 458.33, 738.33 459.40, 738.79 460.61 C 739.25 461.82, 739.75 462.29, 740.47 462.40 C 741.19 462.51, 741.53 462.29, 742.37 461.16 C 743.21 460.03, 743.68 459.13, 744.67 456.73 C 745.66 454.33, 746.03 452.65, 747.31 449.15 C 748.60 445.65, 749.37 443.52, 751.11 439.26 C 752.85 434.99, 753.86 432.53, 756.01 427.80 C 758.16 423.08, 759.38 420.46, 761.86 415.65 C 764.35 410.83, 765.74 408.25, 768.42 403.73 C 771.11 399.22, 772.59 396.89, 775.30 393.08 C 778.01 389.27, 779.48 387.44, 781.98 384.68 C 784.49 381.92, 785.92 380.98, 787.83 379.27 C 789.73 377.57, 790.38 376.98, 791.52 376.16 C 792.66 375.35, 792.99 375.20, 793.53 375.20 C 794.08 375.20, 794.23 375.34, 794.26 376.16 C 794.30 376.99, 794.27 377.62, 793.71 379.32 C 793.15 381.02, 792.74 382.12, 791.47 384.65 C 790.21 387.18, 789.47 388.83, 787.40 391.96 C 785.34 395.10, 783.98 396.91, 781.13 400.31 C 778.29 403.72, 776.58 405.60, 773.20 409.00 C 769.82 412.40, 767.90 414.18, 764.22 417.30 C 760.54 420.42, 758.55 421.97, 754.80 424.58 C 751.05 427.20, 749.06 428.45, 745.48 430.38 C 741.89 432.30, 740.06 433.11, 736.87 434.21 C 733.69 435.32, 732.09 435.50, 729.55 435.90 C 727.01 436.31, 725.94 436.41, 724.17 436.25 C 722.41 436.09, 721.73 435.79, 720.72 435.10 C 719.72 434.41, 719.41 433.93, 719.14 432.79 C 718.88 431.66, 718.96 430.91, 719.40 429.41 C 719.84 427.91, 720.29 426.95, 721.32 425.31 C 722.36 423.68, 723.14 422.73, 724.57 421.24 C 726.00 419.75, 726.96 418.98, 728.48 417.88 C 730.01 416.79, 730.91 416.38, 732.18 415.75 C 733.45 415.11, 734.03 415.00, 734.83 414.70 C 735.64 414.40, 735.89 414.31, 736.19 414.23 C 736.50 414.16, 736.59 414.10, 736.38 414.33 C 736.18 414.55, 735.98 414.79, 735.17 415.36 C 734.35 415.93, 733.78 416.39, 732.29 417.17 C 730.80 417.96, 729.82 418.43, 727.71 419.29 C 725.60 420.15, 724.30 420.58, 721.72 421.47 C 719.15 422.36, 717.70 422.87, 714.85 423.74 C 711.99 424.62, 710.42 425.03, 707.44 425.84 C 704.46 426.66, 702.88 427.02, 699.96 427.81 C 697.03 428.59, 695.49 428.91, 692.80 429.77 C 690.12 430.63, 688.76 431.10, 686.53 432.11 C 684.30 433.13, 683.19 433.66, 681.65 434.85 C 680.10 436.04, 679.45 436.75, 678.79 438.06 C 678.13 439.36, 678.06 440.23, 678.35 441.37 C 678.64 442.51, 679.13 443.14, 680.24 443.75 C 681.35 444.37, 682.19 444.50, 683.90 444.44 C 685.61 444.38, 686.67 444.13, 688.79 443.44 C 690.91 442.76, 692.17 442.22, 694.48 441.00 C 696.79 439.79, 698.11 438.98, 700.34 437.36 C 702.57 435.75, 703.79 434.78, 705.63 432.92 C 707.47 431.05, 708.39 429.99, 709.53 428.05 C 710.67 426.11, 711.10 425.01, 711.34 423.21 C 711.57 421.42, 711.40 420.42, 710.71 419.05 C 710.02 417.69, 709.36 417.05, 707.89 416.37 C 706.42 415.68, 705.43 415.55, 703.38 415.64 C 701.33 415.73, 700.09 416.01, 697.63 416.80 C 695.16 417.59, 693.73 418.25, 691.07 419.61 C 688.42 420.96, 686.93 421.95, 684.35 423.58 C 681.78 425.21, 680.28 426.10, 678.20 427.75 C 676.13 429.39, 675.16 430.41, 673.99 431.82 C 672.82 433.23, 672.56 434.06, 672.35 434.78 C 672.14 435.50, 672.41 435.78, 672.93 435.42 C 673.45 435.06, 673.93 434.54, 674.96 432.98 C 675.99 431.42, 676.68 430.19, 678.07 427.62 C 679.46 425.04, 680.25 423.30, 681.90 420.13 C 683.55 416.95, 684.60 415.09, 686.33 411.76 C 688.06 408.42, 688.99 406.57, 690.53 403.46 C 692.08 400.35, 693.03 398.80, 694.06 396.21 C 695.09 393.61, 695.34 392.32, 695.66 390.48 C 695.99 388.64, 695.83 388.00, 695.69 386.99 C 695.56 385.98, 695.41 385.79, 694.99 385.44 C 694.57 385.08, 694.09 385.04, 693.59 385.22" style="stroke: black; fill: black;"/><path d="M 974.93,381.12 C 974.41 381.28, 974.28 381.43, 973.70 382.24 C 973.11 383.05, 972.81 383.51, 972.01 385.17 C 971.21 386.84, 970.73 387.95, 969.69 390.55 C 968.64 393.15, 968.22 394.91, 966.79 398.16 C 965.37 401.41, 964.38 403.29, 962.58 406.81 C 960.77 410.33, 959.66 412.28, 957.77 415.76 C 955.88 419.23, 954.84 421.09, 953.13 424.18 C 951.43 427.26, 950.37 428.71, 949.22 431.17 C 948.08 433.63, 947.87 434.88, 947.41 436.47 C 946.96 438.06, 946.87 438.51, 946.96 439.14 C 947.05 439.77, 947.30 439.91, 947.87 439.61 C 948.43 439.31, 948.82 438.97, 949.80 437.64 C 950.78 436.31, 951.49 435.31, 952.76 432.94 C 954.03 430.57, 954.59 428.90, 956.16 425.77 C 957.73 422.65, 958.73 420.77, 960.60 417.29 C 962.48 413.82, 963.60 411.87, 965.54 408.39 C 967.48 404.92, 968.54 403.06, 970.30 399.90 C 972.06 396.75, 973.11 395.21, 974.35 392.60 C 975.60 389.99, 976.02 388.73, 976.53 386.84 C 977.04 384.96, 976.94 384.24, 976.90 383.16 C 976.86 382.08, 976.73 381.86, 976.33 381.45 C 975.94 381.04, 975.46 380.96, 974.93 381.12" style="stroke: black; fill: black;"/><path d="M 945.05,419.87 C 945.31 420.46, 945.63 420.82, 946.70 421.27 C 947.77 421.72, 948.54 422.01, 950.40 422.13 C 952.25 422.25, 953.49 422.26, 955.97 421.87 C 958.46 421.48, 959.91 421.13, 962.82 420.17 C 965.73 419.21, 967.32 418.52, 970.50 417.06 C 973.68 415.61, 975.40 414.75, 978.72 412.88 C 982.05 411.01, 983.82 409.91, 987.13 407.70 C 990.44 405.50, 992.16 404.25, 995.28 401.84 C 998.40 399.43, 999.97 398.08, 1002.72 395.65 C 1005.46 393.23, 1006.84 391.96, 1009.00 389.70 C 1011.15 387.44, 1012.16 386.29, 1013.50 384.34 C 1014.83 382.39, 1015.33 381.43, 1015.66 379.96 C 1015.98 378.48, 1015.80 377.74, 1015.11 376.98 C 1014.43 376.23, 1013.64 375.90, 1012.21 376.19 C 1010.79 376.47, 1009.76 376.89, 1007.98 378.41 C 1006.21 379.92, 1005.28 381.19, 1003.33 383.77 C 1001.38 386.34, 1000.37 388.07, 998.25 391.27 C 996.12 394.47, 994.87 396.35, 992.72 399.78 C 990.56 403.20, 989.39 405.10, 987.45 408.39 C 985.51 411.68, 984.48 413.36, 982.99 416.23 C 981.51 419.10, 980.78 420.47, 980.04 422.73 C 979.29 425.00, 979.12 426.00, 979.27 427.55 C 979.42 429.10, 979.79 429.72, 980.80 430.48 C 981.80 431.23, 982.67 431.42, 984.31 431.33 C 985.94 431.23, 987.01 430.83, 988.95 430.01 C 990.90 429.19, 992.03 428.39, 994.03 427.23 C 996.02 426.07, 997.23 425.25, 998.94 424.21 C 1000.64 423.17, 1001.49 422.61, 1002.56 422.04 C 1003.62 421.47, 1003.91 421.31, 1004.26 421.35 C 1004.60 421.40, 1004.44 421.60, 1004.27 422.26 C 1004.09 422.92, 1003.63 423.46, 1003.37 424.66 C 1003.11 425.87, 1002.86 426.79, 1002.98 428.28 C 1003.10 429.76, 1003.28 430.72, 1003.98 432.07 C 1004.69 433.43, 1005.19 434.15, 1006.51 435.03 C 1007.83 435.92, 1008.69 436.32, 1010.60 436.50 C 1012.52 436.68, 1013.70 436.55, 1016.08 435.94 C 1018.46 435.33, 1019.86 434.77, 1022.49 433.44 C 1025.12 432.10, 1026.55 431.06, 1029.21 429.29 C 1031.87 427.51, 1033.39 426.47, 1035.78 424.56 C 1038.18 422.65, 1039.46 421.60, 1041.20 419.73 C 1042.93 417.85, 1043.73 416.85, 1044.45 415.20 C 1045.18 413.56, 1045.26 412.66, 1044.82 411.51 C 1044.39 410.36, 1043.69 409.76, 1042.27 409.45 C 1040.84 409.13, 1039.66 409.20, 1037.69 409.93 C 1035.73 410.67, 1034.46 411.49, 1032.45 413.13 C 1030.43 414.77, 1029.28 415.98, 1027.63 418.13 C 1025.99 420.28, 1025.08 421.59, 1024.22 423.87 C 1023.36 426.14, 1023.07 427.44, 1023.35 429.50 C 1023.62 431.56, 1024.08 432.65, 1025.59 434.14 C 1027.10 435.64, 1028.29 436.33, 1030.90 436.98 C 1033.51 437.64, 1035.23 437.60, 1038.63 437.42 C 1042.03 437.23, 1044.37 436.72, 1047.91 436.08 C 1051.44 435.43, 1053.54 435.09, 1056.32 434.19 C 1059.11 433.29, 1060.80 432.42, 1061.82 431.59 C 1062.84 430.77, 1062.69 430.29, 1061.42 430.06 C 1060.15 429.84, 1058.31 430.07, 1055.47 430.47 C 1052.63 430.86, 1050.64 431.51, 1047.23 432.03 C 1043.81 432.55, 1041.50 432.91, 1038.40 433.08 C 1035.30 433.24, 1033.84 433.13, 1031.71 432.85 C 1029.58 432.57, 1028.75 432.40, 1027.73 431.69 C 1026.71 430.97, 1026.55 430.49, 1026.60 429.28 C 1026.66 428.07, 1027.05 427.24, 1028.00 425.64 C 1028.96 424.04, 1029.83 422.97, 1031.39 421.29 C 1032.96 419.61, 1034.13 418.67, 1035.84 417.24 C 1037.54 415.82, 1038.59 415.16, 1039.92 414.17 C 1041.25 413.18, 1041.84 412.73, 1042.47 412.27 C 1043.09 411.81, 1043.22 411.64, 1043.06 411.87 C 1042.90 412.09, 1042.62 412.42, 1041.66 413.40 C 1040.70 414.38, 1039.95 415.20, 1038.24 416.76 C 1036.54 418.32, 1035.40 419.41, 1033.12 421.19 C 1030.85 422.96, 1029.42 424.06, 1026.86 425.63 C 1024.30 427.21, 1022.76 427.91, 1020.34 429.06 C 1017.91 430.22, 1016.67 430.74, 1014.73 431.41 C 1012.80 432.08, 1011.93 432.28, 1010.65 432.42 C 1009.37 432.56, 1008.96 432.47, 1008.35 432.13 C 1007.73 431.79, 1007.67 431.49, 1007.57 430.71 C 1007.47 429.94, 1007.74 429.39, 1007.84 428.24 C 1007.94 427.09, 1008.18 426.29, 1008.08 424.95 C 1007.98 423.62, 1007.91 422.74, 1007.34 421.58 C 1006.76 420.43, 1006.34 419.79, 1005.20 419.19 C 1004.06 418.59, 1003.30 418.43, 1001.64 418.58 C 999.97 418.74, 998.89 419.17, 996.85 419.97 C 994.82 420.78, 993.51 421.52, 991.46 422.62 C 989.41 423.71, 988.24 424.41, 986.60 425.44 C 984.95 426.47, 984.21 427.09, 983.24 427.77 C 982.28 428.45, 982.04 428.84, 981.78 428.84 C 981.51 428.83, 981.57 428.71, 981.91 427.75 C 982.25 426.79, 982.60 426.01, 983.47 424.04 C 984.34 422.06, 984.88 420.66, 986.25 417.86 C 987.61 415.06, 988.44 413.30, 990.28 410.03 C 992.13 406.77, 993.29 404.88, 995.48 401.56 C 997.67 398.23, 998.94 396.38, 1001.23 393.41 C 1003.52 390.44, 1004.89 389.01, 1006.93 386.70 C 1008.96 384.40, 1010.05 383.46, 1011.41 381.89 C 1012.77 380.33, 1013.20 379.70, 1013.74 378.87 C 1014.28 378.04, 1014.25 377.75, 1014.11 377.73 C 1013.97 377.72, 1013.76 377.91, 1013.04 378.78 C 1012.31 379.65, 1011.82 380.42, 1010.47 382.10 C 1009.11 383.77, 1008.25 384.94, 1006.25 387.16 C 1004.26 389.38, 1003.07 390.78, 1000.49 393.22 C 997.91 395.66, 996.37 396.99, 993.35 399.36 C 990.33 401.73, 988.63 402.94, 985.38 405.05 C 982.14 407.16, 980.38 408.21, 977.11 409.91 C 973.84 411.61, 972.15 412.39, 969.04 413.57 C 965.93 414.75, 964.32 415.15, 961.57 415.83 C 958.81 416.50, 957.50 416.66, 955.26 416.95 C 953.02 417.24, 951.98 417.14, 950.35 417.29 C 948.72 417.45, 948.11 417.51, 947.12 417.72 C 946.13 417.93, 945.81 417.91, 945.40 418.34 C 944.99 418.77, 944.79 419.29, 945.05 419.87" style="stroke: black; fill: black;"/><path d="M 1141.43,411.07 C 1141.40 410.44, 1141.15 410.02, 1140.45 409.44 C 1139.74 408.86, 1139.17 408.48, 1137.90 408.18 C 1136.63 407.89, 1135.72 407.82, 1134.10 407.98 C 1132.48 408.14, 1131.55 408.40, 1129.79 408.98 C 1128.04 409.56, 1127.03 409.95, 1125.32 410.88 C 1123.61 411.82, 1122.65 412.41, 1121.25 413.67 C 1119.84 414.93, 1119.12 415.68, 1118.28 417.18 C 1117.44 418.68, 1117.16 419.55, 1117.04 421.16 C 1116.91 422.77, 1117.10 423.66, 1117.67 425.24 C 1118.25 426.82, 1118.83 427.62, 1119.90 429.05 C 1120.98 430.48, 1121.78 431.17, 1123.05 432.40 C 1124.32 433.63, 1125.12 434.22, 1126.23 435.21 C 1127.34 436.21, 1127.94 436.64, 1128.62 437.36 C 1129.30 438.07, 1129.56 438.30, 1129.64 438.78 C 1129.71 439.27, 1129.60 439.38, 1128.99 439.79 C 1128.38 440.19, 1127.85 440.35, 1126.59 440.79 C 1125.32 441.24, 1124.39 441.54, 1122.65 442.03 C 1120.90 442.52, 1119.76 442.84, 1117.86 443.25 C 1115.96 443.66, 1114.83 443.83, 1113.16 444.09 C 1111.49 444.34, 1110.62 444.32, 1109.51 444.52 C 1108.41 444.73, 1107.99 444.82, 1107.63 445.10 C 1107.28 445.38, 1107.29 445.69, 1107.73 445.92 C 1108.17 446.15, 1108.61 446.39, 1109.83 446.27 C 1111.05 446.15, 1111.91 445.92, 1113.85 445.32 C 1115.78 444.73, 1117.01 444.30, 1119.51 443.30 C 1122.01 442.30, 1123.45 441.60, 1126.36 440.31 C 1129.27 439.02, 1130.90 438.30, 1134.04 436.84 C 1137.19 435.38, 1138.92 434.57, 1142.09 433.00 C 1145.27 431.42, 1146.93 430.55, 1149.91 428.97 C 1152.88 427.39, 1154.41 426.59, 1156.95 425.10 C 1159.50 423.60, 1160.77 422.85, 1162.64 421.49 C 1164.51 420.13, 1165.47 419.35, 1166.31 418.28 C 1167.15 417.21, 1167.19 416.55, 1166.84 416.13 C 1166.49 415.72, 1165.77 415.64, 1164.55 416.23 C 1163.34 416.82, 1162.30 417.48, 1160.75 419.09 C 1159.20 420.69, 1158.21 422.05, 1156.80 424.26 C 1155.39 426.48, 1154.64 427.91, 1153.69 430.16 C 1152.75 432.41, 1152.31 433.57, 1152.08 435.51 C 1151.84 437.44, 1151.91 438.40, 1152.53 439.83 C 1153.14 441.26, 1153.75 441.91, 1155.16 442.64 C 1156.57 443.37, 1157.58 443.58, 1159.58 443.46 C 1161.57 443.35, 1162.80 443.00, 1165.15 442.06 C 1167.50 441.13, 1168.83 440.35, 1171.35 438.79 C 1173.87 437.23, 1175.21 436.11, 1177.74 434.26 C 1180.28 432.41, 1181.76 431.37, 1184.02 429.53 C 1186.28 427.70, 1187.60 426.64, 1189.04 425.09 C 1190.49 423.55, 1190.97 422.67, 1191.23 421.80 C 1191.48 420.94, 1191.09 420.65, 1190.32 420.76 C 1189.55 420.87, 1188.63 421.23, 1187.38 422.35 C 1186.13 423.46, 1185.12 424.52, 1184.05 426.34 C 1182.99 428.16, 1182.56 429.52, 1182.05 431.45 C 1181.55 433.37, 1181.32 434.39, 1181.53 435.96 C 1181.73 437.54, 1182.03 438.34, 1183.06 439.32 C 1184.09 440.31, 1184.94 440.72, 1186.69 440.90 C 1188.45 441.08, 1189.58 440.88, 1191.83 440.21 C 1194.08 439.55, 1195.41 438.92, 1197.95 437.57 C 1200.49 436.23, 1201.87 435.15, 1204.52 433.49 C 1207.18 431.82, 1208.71 430.86, 1211.22 429.26 C 1213.73 427.65, 1215.23 426.76, 1217.08 425.46 C 1218.93 424.16, 1219.72 423.46, 1220.49 422.75 C 1221.25 422.04, 1221.22 421.83, 1220.90 421.90 C 1220.58 421.97, 1219.94 422.23, 1218.89 423.11 C 1217.83 424.00, 1216.86 424.82, 1215.61 426.32 C 1214.37 427.82, 1213.59 428.97, 1212.65 430.61 C 1211.70 432.26, 1211.17 433.18, 1210.88 434.56 C 1210.60 435.93, 1210.64 436.66, 1211.22 437.47 C 1211.80 438.29, 1212.39 438.62, 1213.79 438.63 C 1215.19 438.63, 1216.19 438.34, 1218.21 437.50 C 1220.24 436.66, 1221.52 435.82, 1223.93 434.43 C 1226.35 433.04, 1227.77 431.95, 1230.29 430.57 C 1232.80 429.19, 1234.33 428.51, 1236.51 427.52 C 1238.70 426.53, 1239.80 426.09, 1241.21 425.60 C 1242.63 425.11, 1243.11 424.99, 1243.58 425.06 C 1244.04 425.12, 1243.88 425.27, 1243.56 425.91 C 1243.24 426.56, 1242.68 427.10, 1241.99 428.28 C 1241.30 429.47, 1240.74 430.32, 1240.10 431.85 C 1239.46 433.38, 1239.04 434.36, 1238.81 435.91 C 1238.58 437.47, 1238.50 438.39, 1238.96 439.64 C 1239.43 440.90, 1239.92 441.57, 1241.13 442.19 C 1242.34 442.82, 1243.20 442.97, 1245.03 442.76 C 1246.86 442.56, 1247.99 442.17, 1250.28 441.15 C 1252.56 440.13, 1253.86 439.24, 1256.44 437.66 C 1259.02 436.08, 1260.46 434.97, 1263.18 433.25 C 1265.90 431.52, 1267.50 430.60, 1270.04 429.03 C 1272.57 427.47, 1274.04 426.64, 1275.84 425.41 C 1277.64 424.19, 1278.37 423.55, 1279.04 422.93 C 1279.71 422.31, 1279.61 422.13, 1279.19 422.30 C 1278.76 422.46, 1278.07 422.75, 1276.89 423.77 C 1275.71 424.78, 1274.73 425.69, 1273.29 427.37 C 1271.84 429.05, 1271.01 430.35, 1269.67 432.17 C 1268.33 434.00, 1267.50 434.97, 1266.59 436.49 C 1265.68 438.02, 1265.26 438.74, 1265.12 439.79 C 1264.99 440.83, 1265.23 441.32, 1265.92 441.74 C 1266.62 442.15, 1267.32 442.25, 1268.59 441.85 C 1269.86 441.45, 1270.70 440.92, 1272.26 439.74 C 1273.83 438.56, 1274.67 437.53, 1276.41 435.95 C 1278.16 434.38, 1279.16 433.43, 1280.99 431.87 C 1282.82 430.31, 1283.84 429.46, 1285.57 428.13 C 1287.30 426.80, 1288.15 426.19, 1289.65 425.23 C 1291.14 424.27, 1291.80 423.91, 1293.03 423.33 C 1294.25 422.75, 1294.76 422.58, 1295.77 422.33 C 1296.78 422.08, 1297.18 422.10, 1298.08 422.09 C 1298.98 422.07, 1299.36 422.16, 1300.26 422.26 C 1301.15 422.36, 1301.59 422.48, 1302.56 422.60 C 1303.52 422.72, 1304.05 422.79, 1305.08 422.85 C 1306.12 422.91, 1306.67 422.90, 1307.73 422.90 C 1308.79 422.90, 1309.44 422.99, 1310.37 422.85 C 1311.31 422.70, 1311.92 422.48, 1312.42 422.17 C 1312.91 421.87, 1312.97 421.39, 1312.87 421.32 C 1312.76 421.24, 1312.49 421.24, 1311.89 421.80 C 1311.29 422.36, 1310.80 422.89, 1309.87 424.14 C 1308.94 425.38, 1308.29 426.34, 1307.24 428.03 C 1306.19 429.71, 1305.50 430.77, 1304.61 432.56 C 1303.72 434.34, 1303.21 435.32, 1302.78 436.96 C 1302.35 438.61, 1302.22 439.42, 1302.46 440.77 C 1302.71 442.12, 1303.03 442.82, 1304.01 443.71 C 1304.99 444.60, 1305.75 444.99, 1307.37 445.21 C 1308.98 445.44, 1310.00 445.32, 1312.08 444.84 C 1314.15 444.37, 1315.35 443.89, 1317.76 442.83 C 1320.18 441.78, 1321.49 441.00, 1324.15 439.58 C 1326.80 438.16, 1328.26 437.27, 1331.05 435.72 C 1333.84 434.17, 1335.35 433.31, 1338.10 431.83 C 1340.84 430.36, 1342.31 429.63, 1344.78 428.33 C 1347.26 427.03, 1348.46 426.34, 1350.47 425.33 C 1352.49 424.32, 1353.42 423.90, 1354.85 423.29 C 1356.29 422.68, 1356.87 422.50, 1357.64 422.29 C 1358.42 422.08, 1358.57 422.08, 1358.75 422.23 C 1358.93 422.39, 1358.76 422.53, 1358.55 423.07 C 1358.35 423.61, 1358.12 423.98, 1357.73 424.92 C 1357.34 425.86, 1357.15 426.51, 1356.61 427.77 C 1356.07 429.02, 1355.75 429.79, 1355.02 431.20 C 1354.28 432.61, 1353.82 433.40, 1352.92 434.80 C 1352.01 436.20, 1351.49 436.94, 1350.48 438.22 C 1349.48 439.51, 1348.91 440.15, 1347.89 441.22 C 1346.88 442.30, 1346.36 442.80, 1345.40 443.60 C 1344.45 444.41, 1343.94 444.73, 1343.13 445.24 C 1342.31 445.76, 1341.89 445.89, 1341.33 446.19 C 1340.76 446.49, 1340.53 446.48, 1340.30 446.74 C 1340.08 447.00, 1340.11 447.17, 1340.20 447.50 C 1340.30 447.82, 1340.40 448.17, 1340.79 448.37 C 1341.19 448.56, 1341.39 448.62, 1342.18 448.47 C 1342.97 448.32, 1343.45 448.07, 1344.75 447.63 C 1346.04 447.20, 1346.84 446.89, 1348.67 446.30 C 1350.49 445.70, 1351.58 445.39, 1353.87 444.66 C 1356.15 443.93, 1357.47 443.56, 1360.09 442.63 C 1362.70 441.70, 1364.12 441.14, 1366.93 440.01 C 1369.73 438.88, 1371.25 438.25, 1374.11 436.98 C 1376.97 435.71, 1378.50 435.02, 1381.22 433.65 C 1383.94 432.28, 1385.36 431.56, 1387.70 430.14 C 1390.05 428.72, 1391.19 427.94, 1392.94 426.54 C 1394.68 425.14, 1395.51 424.45, 1396.44 423.13 C 1397.38 421.80, 1397.67 421.06, 1397.63 419.92 C 1397.58 418.78, 1397.21 418.08, 1396.22 417.43 C 1395.22 416.78, 1394.31 416.51, 1392.66 416.68 C 1391.00 416.85, 1389.88 417.25, 1387.95 418.29 C 1386.03 419.33, 1384.91 420.22, 1383.03 421.87 C 1381.16 423.52, 1380.06 424.57, 1378.58 426.55 C 1377.10 428.54, 1376.33 429.68, 1375.63 431.77 C 1374.94 433.87, 1374.74 435.07, 1375.12 437.04 C 1375.51 439.01, 1376.01 440.06, 1377.56 441.62 C 1379.11 443.18, 1380.28 443.92, 1382.88 444.83 C 1385.48 445.74, 1387.21 445.92, 1390.57 446.18 C 1393.92 446.44, 1396.22 446.29, 1399.65 446.12 C 1403.08 445.96, 1405.05 445.87, 1407.73 445.36 C 1410.41 444.84, 1412.03 444.22, 1413.06 443.55 C 1414.08 442.88, 1414.00 442.42, 1412.87 442.02 C 1411.73 441.62, 1410.05 441.58, 1407.38 441.56 C 1404.71 441.54, 1402.80 441.87, 1399.51 441.92 C 1396.22 441.98, 1393.98 442.08, 1390.92 441.82 C 1387.86 441.56, 1386.39 441.19, 1384.19 440.61 C 1381.99 440.03, 1381.09 439.74, 1379.93 438.92 C 1378.76 438.09, 1378.49 437.63, 1378.36 436.50 C 1378.22 435.37, 1378.49 434.67, 1379.25 433.27 C 1380.00 431.87, 1380.72 431.00, 1382.13 429.50 C 1383.54 428.00, 1384.60 427.10, 1386.30 425.76 C 1387.99 424.42, 1389.07 423.79, 1390.60 422.81 C 1392.12 421.82, 1392.92 421.47, 1393.92 420.84 C 1394.91 420.21, 1395.25 419.92, 1395.58 419.65 C 1395.90 419.38, 1395.87 419.26, 1395.55 419.50 C 1395.22 419.73, 1394.93 420.04, 1393.94 420.82 C 1392.94 421.59, 1392.26 422.22, 1390.58 423.36 C 1388.90 424.51, 1387.78 425.20, 1385.54 426.53 C 1383.30 427.86, 1381.98 428.67, 1379.37 430.02 C 1376.76 431.37, 1375.28 432.08, 1372.49 433.28 C 1369.70 434.49, 1368.19 435.05, 1365.42 436.04 C 1362.65 437.03, 1361.21 437.42, 1358.61 438.24 C 1356.02 439.05, 1354.74 439.44, 1352.46 440.12 C 1350.18 440.80, 1349.10 441.07, 1347.22 441.63 C 1345.34 442.18, 1344.47 442.36, 1343.06 442.89 C 1341.65 443.42, 1341.03 443.62, 1340.16 444.27 C 1339.29 444.92, 1338.97 445.34, 1338.71 446.15 C 1338.45 446.96, 1338.53 447.62, 1338.85 448.32 C 1339.18 449.02, 1339.60 449.38, 1340.33 449.63 C 1341.05 449.88, 1341.54 449.80, 1342.48 449.59 C 1343.42 449.37, 1343.95 449.14, 1345.03 448.57 C 1346.12 448.00, 1346.73 447.62, 1347.90 446.74 C 1349.06 445.85, 1349.67 445.31, 1350.86 444.16 C 1352.05 443.00, 1352.69 442.33, 1353.85 440.97 C 1355.01 439.60, 1355.60 438.82, 1356.65 437.32 C 1357.71 435.82, 1358.24 435.00, 1359.12 433.46 C 1360.01 431.92, 1360.47 431.12, 1361.07 429.63 C 1361.68 428.13, 1361.99 427.35, 1362.15 425.97 C 1362.31 424.59, 1362.27 423.83, 1361.88 422.71 C 1361.50 421.58, 1361.10 421.01, 1360.22 420.34 C 1359.34 419.67, 1358.78 419.45, 1357.47 419.36 C 1356.17 419.27, 1355.43 419.42, 1353.69 419.89 C 1351.96 420.37, 1350.97 420.79, 1348.79 421.74 C 1346.62 422.68, 1345.35 423.29, 1342.83 424.62 C 1340.31 425.94, 1338.94 426.84, 1336.20 428.34 C 1333.46 429.85, 1331.94 430.69, 1329.13 432.14 C 1326.32 433.58, 1324.79 434.33, 1322.14 435.57 C 1319.48 436.81, 1318.13 437.40, 1315.85 438.33 C 1313.58 439.27, 1312.48 439.65, 1310.78 440.24 C 1309.07 440.83, 1308.35 441.03, 1307.32 441.29 C 1306.29 441.55, 1306.01 441.65, 1305.63 441.53 C 1305.26 441.41, 1305.27 441.29, 1305.44 440.67 C 1305.62 440.05, 1305.86 439.56, 1306.52 438.43 C 1307.18 437.29, 1307.70 436.48, 1308.74 434.99 C 1309.78 433.49, 1310.59 432.59, 1311.71 430.96 C 1312.83 429.33, 1313.59 428.41, 1314.36 426.84 C 1315.12 425.28, 1315.44 424.46, 1315.53 423.13 C 1315.62 421.80, 1315.41 421.13, 1314.82 420.21 C 1314.23 419.29, 1313.56 418.90, 1312.60 418.52 C 1311.64 418.14, 1311.01 418.31, 1310.01 418.32 C 1309.01 418.32, 1308.56 418.50, 1307.60 418.56 C 1306.64 418.62, 1306.18 418.62, 1305.23 418.61 C 1304.29 418.60, 1303.83 418.54, 1302.87 418.51 C 1301.92 418.48, 1301.46 418.46, 1300.46 418.46 C 1299.46 418.46, 1298.99 418.43, 1297.89 418.53 C 1296.79 418.62, 1296.22 418.64, 1294.96 418.93 C 1293.70 419.23, 1293.05 419.42, 1291.59 420.00 C 1290.13 420.58, 1289.35 420.92, 1287.65 421.84 C 1285.95 422.76, 1284.98 423.34, 1283.06 424.60 C 1281.14 425.87, 1280.06 426.69, 1278.05 428.16 C 1276.04 429.63, 1274.91 430.47, 1273.03 431.96 C 1271.16 433.45, 1270.05 434.23, 1268.68 435.59 C 1267.30 436.96, 1266.74 437.72, 1266.16 438.78 C 1265.58 439.85, 1265.58 440.42, 1265.79 440.91 C 1266.00 441.40, 1266.36 441.57, 1267.20 441.24 C 1268.03 440.91, 1268.66 440.42, 1269.95 439.27 C 1271.25 438.12, 1272.11 437.16, 1273.67 435.49 C 1275.23 433.82, 1276.39 432.77, 1277.75 430.90 C 1279.11 429.02, 1279.88 427.83, 1280.49 426.12 C 1281.09 424.40, 1281.19 423.42, 1280.78 422.33 C 1280.37 421.23, 1279.84 420.74, 1278.46 420.64 C 1277.07 420.54, 1275.99 420.86, 1273.85 421.81 C 1271.72 422.75, 1270.36 423.80, 1267.78 425.37 C 1265.21 426.94, 1263.72 428.03, 1260.98 429.66 C 1258.24 431.30, 1256.65 432.16, 1254.07 433.54 C 1251.50 434.93, 1250.13 435.56, 1248.11 436.59 C 1246.08 437.61, 1245.17 438.07, 1243.94 438.68 C 1242.70 439.29, 1242.36 439.52, 1241.93 439.63 C 1241.50 439.75, 1241.59 439.71, 1241.81 439.24 C 1242.03 438.77, 1242.42 438.34, 1243.04 437.28 C 1243.65 436.22, 1244.22 435.42, 1244.90 433.93 C 1245.57 432.45, 1246.08 431.48, 1246.39 429.86 C 1246.71 428.24, 1246.83 427.21, 1246.47 425.85 C 1246.11 424.48, 1245.74 423.76, 1244.58 423.02 C 1243.41 422.28, 1242.56 422.06, 1240.63 422.13 C 1238.69 422.21, 1237.39 422.56, 1234.90 423.39 C 1232.40 424.23, 1230.87 425.05, 1228.14 426.31 C 1225.42 427.56, 1223.76 428.32, 1221.28 429.65 C 1218.81 430.97, 1217.48 431.74, 1215.75 432.93 C 1214.02 434.11, 1213.33 434.77, 1212.63 435.58 C 1211.92 436.39, 1211.98 436.81, 1212.24 436.97 C 1212.49 437.13, 1212.99 437.03, 1213.92 436.39 C 1214.85 435.75, 1215.61 435.10, 1216.88 433.77 C 1218.15 432.44, 1219.18 431.46, 1220.28 429.73 C 1221.39 428.01, 1222.03 426.78, 1222.42 425.15 C 1222.81 423.53, 1222.80 422.58, 1222.25 421.60 C 1221.70 420.62, 1221.12 420.23, 1219.65 420.27 C 1218.19 420.30, 1217.08 420.73, 1214.92 421.78 C 1212.76 422.84, 1211.40 423.96, 1208.87 425.55 C 1206.34 427.13, 1204.90 428.20, 1202.26 429.71 C 1199.62 431.23, 1198.08 431.92, 1195.66 433.11 C 1193.25 434.30, 1192.03 434.87, 1190.19 435.68 C 1188.36 436.49, 1187.57 436.81, 1186.47 437.15 C 1185.38 437.50, 1185.06 437.60, 1184.72 437.40 C 1184.39 437.20, 1184.45 436.97, 1184.79 436.16 C 1185.14 435.35, 1185.56 434.69, 1186.46 433.35 C 1187.37 432.00, 1188.31 431.12, 1189.31 429.44 C 1190.30 427.77, 1190.96 426.58, 1191.45 424.98 C 1191.95 423.38, 1192.07 422.40, 1191.79 421.44 C 1191.52 420.48, 1191.17 420.09, 1190.08 420.18 C 1188.98 420.27, 1188.11 420.71, 1186.34 421.88 C 1184.56 423.05, 1183.42 424.25, 1181.19 426.02 C 1178.97 427.79, 1177.67 429.01, 1175.21 430.74 C 1172.76 432.48, 1171.29 433.32, 1168.90 434.69 C 1166.51 436.07, 1165.25 436.69, 1163.25 437.62 C 1161.25 438.54, 1160.31 438.87, 1158.90 439.30 C 1157.50 439.74, 1156.97 439.87, 1156.22 439.79 C 1155.47 439.72, 1155.28 439.61, 1155.17 438.92 C 1155.06 438.23, 1155.15 437.68, 1155.68 436.35 C 1156.21 435.02, 1156.67 434.07, 1157.81 432.28 C 1158.95 430.49, 1159.91 429.34, 1161.36 427.39 C 1162.81 425.45, 1163.90 424.32, 1165.06 422.53 C 1166.22 420.74, 1166.79 419.75, 1167.18 418.43 C 1167.57 417.10, 1167.52 416.43, 1167.00 415.90 C 1166.48 415.38, 1165.88 415.36, 1164.56 415.81 C 1163.25 416.26, 1162.34 416.98, 1160.41 418.15 C 1158.48 419.33, 1157.35 420.17, 1154.90 421.70 C 1152.45 423.22, 1151.04 424.16, 1148.16 425.79 C 1145.29 427.41, 1143.65 428.28, 1140.52 429.80 C 1137.39 431.33, 1135.68 432.10, 1132.53 433.42 C 1129.39 434.74, 1127.74 435.34, 1124.80 436.38 C 1121.85 437.42, 1120.35 437.80, 1117.82 438.61 C 1115.30 439.41, 1114.09 439.68, 1112.17 440.40 C 1110.25 441.12, 1109.40 441.40, 1108.24 442.21 C 1107.08 443.03, 1106.67 443.55, 1106.37 444.47 C 1106.07 445.40, 1106.16 446.08, 1106.74 446.84 C 1107.33 447.60, 1107.94 447.94, 1109.30 448.28 C 1110.66 448.62, 1111.64 448.60, 1113.54 448.55 C 1115.43 448.50, 1116.65 448.39, 1118.77 448.04 C 1120.88 447.69, 1122.13 447.45, 1124.10 446.82 C 1126.08 446.18, 1127.13 445.80, 1128.63 444.85 C 1130.13 443.89, 1130.82 443.29, 1131.62 442.06 C 1132.41 440.83, 1132.61 440.04, 1132.63 438.70 C 1132.65 437.35, 1132.37 436.64, 1131.72 435.32 C 1131.07 434.01, 1130.46 433.40, 1129.39 432.14 C 1128.32 430.88, 1127.56 430.24, 1126.35 429.04 C 1125.15 427.84, 1124.40 427.23, 1123.38 426.15 C 1122.35 425.07, 1121.80 424.57, 1121.23 423.63 C 1120.65 422.68, 1120.45 422.28, 1120.51 421.41 C 1120.56 420.53, 1120.79 420.13, 1121.49 419.27 C 1122.18 418.40, 1122.80 417.92, 1124.00 417.07 C 1125.20 416.22, 1126.03 415.74, 1127.48 415.02 C 1128.94 414.31, 1129.84 413.96, 1131.26 413.52 C 1132.69 413.07, 1133.42 412.93, 1134.61 412.79 C 1135.80 412.64, 1136.31 412.77, 1137.21 412.80 C 1138.10 412.83, 1138.41 412.97, 1139.09 412.93 C 1139.78 412.89, 1140.17 412.98, 1140.63 412.61 C 1141.10 412.24, 1141.47 411.71, 1141.43 411.07" style="stroke: black; fill: black;"/></svg>