<svg width="234" height="130" viewBox="0 0 234 130" fill="none" xmlns="http://www.w3.org/2000/svg">
<path d="M217.447 116.122C217.447 117.354 217.781 118.34 218.442 119.038C216.072 120.352 214.994 121.255 214.994 124.416C214.994 127.742 218.031 130 224.516 130C231.008 130 234 127.742 234 123.841C234 120.926 231.881 118.299 225.974 118.299H224.098C221.98 118.258 220.94 117.888 220.856 116.533L223.142 113.782H223.772C228.89 113.782 232.003 110.99 232.003 106.679C232.003 104.544 231.426 102.82 230.34 101.588C232.383 100.849 233.506 99.4944 233.506 97.7287C233.506 96.4146 232.588 95.553 231.259 95.553C229.968 95.553 229.133 96.1274 229.133 97.0307C229.884 97.4006 230.386 98.0159 230.386 98.632C230.386 99.4534 229.801 100.028 228.723 100.356C227.432 99.6581 225.807 99.289 223.772 99.289C218.274 99.289 215.533 101.875 215.533 106.679C215.533 110.211 217.614 112.714 221.145 113.536L217.447 116.122ZM224.934 120.352C228.054 120.352 229.922 121.337 229.922 123.841C229.922 126.838 228.009 128.193 224.516 128.193C221.023 128.193 219.072 126.798 219.072 123.841C219.072 122.404 219.816 121.214 221.107 120.352H224.934ZM115.766 120.352H121.97L122.137 118.832C120.846 118.586 119.555 118.052 119.016 117.642V105.283C119.016 101.506 116.184 99.289 111.446 99.289C106.95 99.289 104.118 101.218 104.118 104.257C104.118 105.776 105.158 106.803 106.7 106.803C108.363 106.803 109.282 106.063 109.282 104.708C108.408 104.38 107.907 103.806 107.907 103.066C107.907 101.794 109.198 101.055 111.446 101.055C114.065 101.055 115.189 102.327 115.189 105.283V108.897L111.651 109.143C106.411 109.512 103.579 111.77 103.579 115.589C103.579 118.791 105.66 120.68 109.198 120.68C111.484 120.68 113.443 120.146 115.31 118.38L115.766 120.352ZM143.269 109.635H155.334L156.246 108.445C156.078 102.82 154.416 99.289 148.303 99.289C142.19 99.289 139.153 103.436 139.153 109.841C139.153 116.533 141.439 120.68 148.47 120.68C152.046 120.68 154.043 119.202 155.289 117.764L153.876 116.369C153.003 117.395 151.462 118.791 148.637 118.791C143.724 118.791 143.269 114.809 143.269 110.292V109.635ZM130.915 99.5762H135.987V101.875H130.869V115.548C130.869 117.436 131.036 118.586 132.95 118.586C134.278 118.586 135.114 118.093 135.736 117.723L136.609 119.038C135.987 119.53 134.574 120.68 131.826 120.68C127.999 120.68 127.042 118.997 127.042 115.219V101.875H123.382V100.644C126.419 99.6171 128.249 97.8105 129.123 95.265H130.915V99.5762ZM98.4232 113.249C96.6768 118.093 92.1816 118.38 90.9743 118.38C84.9453 118.38 82.6521 114.932 82.6521 106.556C82.6521 98.1803 85.0667 94.608 91.0198 94.608C93.6774 94.608 95.6365 95.553 95.6365 97.6052C95.6365 98.2622 95.3859 99.0018 94.8012 99.8225C95.0898 100.849 96.13 101.547 97.3829 101.547C98.7117 101.547 99.957 100.151 99.957 98.0985C99.957 93.9518 95.0519 92.3505 90.9743 92.3505C82.4851 92.3505 78.2405 97.2361 78.2405 106.556C78.2405 116.205 82.113 120.639 90.9743 120.639C92.1816 120.639 98.1726 120.311 100.504 113.987L98.4232 113.249ZM189.739 120.352H199.641L199.808 118.832C198.517 118.586 197.431 118.175 196.687 117.642V105.119C197.598 102.943 199.679 101.424 201.721 101.424C204.257 101.424 205.548 102.82 205.548 105.817V117.642C204.713 118.258 203.718 118.668 202.594 118.832L202.465 120.352H212.329L212.496 118.832C211.205 118.586 209.914 118.052 209.375 117.642V105.407C209.375 101.547 206.794 99.289 202.465 99.289C200.18 99.289 197.978 100.52 196.558 102.451L196.148 99.6997L195.351 99.289C193.65 99.7816 191.774 100.439 189.861 100.767L189.739 102.081C192.025 102.163 192.86 102.779 192.86 104.996V117.642C191.941 118.299 191.235 118.545 189.906 118.75L189.739 120.352ZM159.161 120.352H169.481L169.648 118.832C168.19 118.586 166.937 118.175 166.109 117.642V107.582C166.109 104.708 168.228 101.711 169.89 101.711C170.771 101.711 171.181 102.204 171.181 103.066C171.181 103.436 170.931 104.093 170.726 104.298C170.976 105.16 172.017 105.653 173.011 105.653C174.553 105.653 175.388 104.257 175.388 102.902C175.388 100.439 173.391 99.289 171.394 99.289C169.23 99.289 167.271 100.931 166.026 102.779L165.57 99.6997L164.78 99.289C163.072 99.7816 161.196 100.439 159.283 100.767L159.161 102.081C161.447 102.163 162.282 102.779 162.282 104.996V117.642C161.363 118.299 160.657 118.545 159.328 118.75L159.161 120.352ZM177.468 120.352H187.37L187.537 118.832C186.246 118.586 185.16 118.175 184.416 117.642V99.6171L183.543 99.1655C181.706 99.6997 179.587 100.356 177.59 100.685L177.468 101.999C179.754 102.081 180.582 102.697 180.582 104.913V117.642C179.671 118.299 178.964 118.545 177.636 118.75L177.468 120.352ZM115.189 116.287C113.359 118.093 111.985 118.832 110.36 118.832C108.492 118.832 107.535 117.601 107.535 115.219C107.535 112.838 109.152 111.237 111.818 110.99L115.189 110.703V116.287ZM223.772 111.975C220.818 111.975 219.611 110.374 219.611 106.556C219.611 102.697 220.856 101.055 223.772 101.055C226.68 101.055 227.933 102.697 227.933 106.556C227.933 110.374 226.726 111.975 223.772 111.975ZM143.269 107.993C143.352 104.01 144.681 101.096 148.136 101.096C151.34 101.096 152.213 103.271 152.213 107.664C152.213 107.664 146.845 107.952 143.269 107.993ZM182.252 96.0039C183.832 96.0039 184.621 95.0597 184.621 93.4175C184.621 91.7753 183.832 90.872 182.252 90.872C180.673 90.872 179.921 91.7753 179.921 93.4175C179.921 95.0597 180.673 96.0039 182.252 96.0039ZM29.0288 40.7459C18.9906 40.6391 16.1812 34.3561 16.1812 29.5637C16.1812 23.1746 20.6079 19.1271 27.4039 19.1271C33.4481 19.1271 37.7686 22.7479 37.7686 27.8601C37.7686 29.6705 37.3358 31.0551 36.5765 32.4396C38.3078 33.8241 40.244 34.4629 42.4081 34.4629C45.7491 34.4629 48.0195 31.4809 48.0195 26.9015C48.0195 19.1271 39.0594 13.3769 27.4039 13.3769C15.3231 13.3769 6.04417 20.2987 6.04417 29.4576C6.04417 36.6992 9.81806 41.2787 15.3231 43.7279C5.61142 46.9228 0 53.4188 0 64.2812C0 77.6998 11.8682 86.432 30.8588 86.432C49.0977 86.432 61.2924 77.0609 61.2924 59.8086C61.2924 54.2706 59.8876 48.8393 57.4047 44.0469C68.5211 43.834 74.0262 40.32 74.0262 33.5043C74.0262 29.7766 71.6496 27.3274 68.1947 27.3274C66.2508 27.3274 64.4208 28.0731 63.016 29.4576C64.4208 30.6292 65.2788 32.3327 65.2788 34.037C65.2788 37.6578 61.6113 39.2553 53.7372 39.2553C41.3299 39.2553 34.6326 42.7693 34.6326 49.1591C34.6326 53.0997 37.0093 55.868 40.4642 55.868C42.4081 55.868 44.238 55.1231 45.6428 53.7386C44.238 52.567 43.38 50.9695 43.38 49.1591C43.38 45.9642 46.182 44.4736 53.1981 44.1538C55.3545 48.5203 56.4328 53.3127 56.4328 58.3172C56.4328 73.7591 45.7491 80.6817 32.3699 80.6817C18.2313 80.6817 10.7899 75.2505 10.7899 63.7492C10.7899 54.0576 17.9124 47.5617 29.0288 46.284V40.7459ZM207.128 80.8576H213.324L213.491 79.3381C212.207 79.0919 210.917 78.5584 210.37 78.1476V65.7893C210.37 62.0123 207.545 59.795 202.799 59.795C198.312 59.795 195.48 61.7244 195.48 64.7632C195.48 66.2818 196.52 67.3087 198.061 67.3087C199.724 67.3087 200.635 66.569 200.635 65.2148C199.762 64.886 199.269 64.3115 199.269 63.5719C199.269 62.2996 200.552 61.5607 202.799 61.5607C205.419 61.5607 206.543 62.833 206.543 65.7893V69.4025L203.012 69.6488C197.765 70.0186 194.94 72.2761 194.94 76.0947C194.94 79.2972 197.021 81.1857 200.552 81.1857C202.845 81.1857 204.797 80.6522 206.672 78.8865L207.128 80.8576ZM114.726 80.8576H120.929L121.097 79.3381C119.806 79.0919 118.515 78.5584 117.976 78.1476V65.7893C117.976 62.0123 115.143 59.795 110.405 59.795C105.91 59.795 103.078 61.7244 103.078 64.7632C103.078 66.2818 104.118 67.3087 105.66 67.3087C107.322 67.3087 108.241 66.569 108.241 65.2148C107.368 64.886 106.867 64.3115 106.867 63.5719C106.867 62.2996 108.158 61.5607 110.405 61.5607C113.025 61.5607 114.149 62.833 114.149 65.7893V69.4025L110.61 69.6488C105.371 70.0186 102.539 72.2761 102.539 76.0947C102.539 79.2972 104.619 81.1857 108.158 81.1857C110.443 81.1857 112.402 80.6522 114.27 78.8865L114.726 80.8576ZM160.536 70.1414H172.601L173.512 68.9508C173.345 63.3256 171.683 59.795 165.57 59.795C159.45 59.795 156.413 63.9417 156.413 70.3467C156.413 77.039 158.706 81.1857 165.729 81.1857C169.313 81.1857 171.31 79.708 172.556 78.2712L171.143 76.8745C170.27 77.9013 168.729 79.2972 165.904 79.2972C160.991 79.2972 160.536 75.3149 160.536 70.7984V70.1414ZM148.174 60.0822H153.254V62.3814H148.136V76.0538C148.136 77.9423 148.303 79.0918 150.216 79.0918C151.545 79.0918 152.381 78.5993 153.003 78.2295L153.876 79.5435C153.254 80.0361 151.841 81.1857 149.093 81.1857C145.266 81.1857 144.309 79.5026 144.309 75.7249V62.3814H140.649V61.1499C143.686 60.1231 145.516 58.3173 146.39 55.771H148.174V60.0822ZM176.428 80.8576H186.74L186.907 79.3381C185.457 79.0919 184.204 78.6811 183.376 78.1476V68.0885C183.376 65.2148 185.495 62.217 187.157 62.217C188.031 62.217 188.448 62.7103 188.448 63.5719C188.448 63.9417 188.198 64.5988 187.993 64.8041C188.243 65.6665 189.284 66.1591 190.278 66.1591C191.82 66.1591 192.647 64.7632 192.647 63.4082C192.647 60.9446 190.65 59.795 188.653 59.795C186.497 59.795 184.538 61.4372 183.293 63.2847L182.829 60.2057L182.04 59.795C180.339 60.2876 178.463 60.9446 176.55 61.2727L176.428 62.5867C178.714 62.6686 179.549 63.2847 179.549 65.5021V78.1476C178.63 78.8047 177.924 79.0509 176.588 79.2563L176.428 80.8576ZM123.048 80.8576H133.367L133.534 79.3381C132.076 79.0919 130.831 78.6811 129.996 78.1476V68.0885C129.996 65.2148 132.122 62.217 133.785 62.217C134.658 62.217 135.076 62.7103 135.076 63.5719C135.076 63.9417 134.825 64.5988 134.612 64.8041C134.863 65.6665 135.903 66.1591 136.906 66.1591C138.439 66.1591 139.275 64.7632 139.275 63.4082C139.275 60.9446 137.278 59.795 135.281 59.795C133.117 59.795 131.165 61.4372 129.912 63.2847L129.457 60.2057L128.667 59.795C126.959 60.2876 125.091 60.9446 123.177 61.2727L123.048 62.5867C125.334 62.6686 126.169 63.2847 126.169 65.5021V78.1476C125.258 78.8047 124.544 79.0509 123.215 79.2563L123.048 80.8576ZM90.3516 80.8576H78.0354L78.286 79.2154C79.7439 79.0509 81.6119 78.5993 82.318 78.0658V55.8945C81.0727 55.1966 79.4933 54.9094 78.0354 54.7449L78.2405 53.1028H99.4635L99.8355 59.7541C99.4634 59.8768 99.0458 59.9594 98.5902 59.9594C98.3776 59.9594 98.127 59.9594 97.922 59.9177C97.6335 58.5635 97.0032 56.8395 95.8415 55.4429H86.2741V65.6665L92.7207 65.2148C94.2621 65.0913 94.9683 63.2847 95.2189 62.2995H96.6312V70.9212H95.2189C95.0063 69.8951 94.5963 67.8422 92.6828 67.7186L86.2741 67.2677V78.0658C87.3978 78.7637 89.0987 79.0509 90.5566 79.2154L90.3516 80.8576ZM206.543 76.7926C204.713 78.5993 203.339 79.3381 201.721 79.3381C199.846 79.3381 198.889 78.1067 198.889 75.7249C198.889 73.3439 200.514 71.7426 203.172 71.4963L206.543 71.2091V76.7926ZM114.149 76.7926C112.319 78.5993 110.944 79.3381 109.319 79.3381C107.451 79.3381 106.495 78.1067 106.495 75.7249C106.495 73.3439 108.112 71.7426 110.777 71.4963L114.149 71.2091V76.7926ZM160.536 68.4992C160.619 64.5169 161.948 61.6016 165.403 61.6016C168.607 61.6016 169.481 63.7773 169.481 68.1703C169.481 68.1703 164.112 68.4583 160.536 68.4992ZM67.9288 0C73.5098 0 78.0354 4.57793 78.0354 10.2168C78.0354 15.8557 73.5098 20.4336 67.9288 20.4336C62.3554 20.4336 57.8299 15.8557 57.8299 10.2168C57.8299 4.57793 62.3554 0 67.9288 0Z" fill="black"/>
</svg>
