<?xml version="1.0" encoding="utf-8"?>
<!-- Generator: Adobe Illustrator 22.1.0, SVG Export Plug-In . SVG Version: 6.00 Build 0)  -->
<svg version="1.1" id="Capa_1" xmlns="http://www.w3.org/2000/svg" xmlns:xlink="http://www.w3.org/1999/xlink" x="0px" y="0px"
	 viewBox="0 0 600 64" style="enable-background:new 0 0 600 64;" xml:space="preserve">
<style type="text/css">
	.st0{fill:#235A9E;}
</style>
<title>faviconRecurso 1</title>
<g id="Capa_2_1_">
	<g id="Capa_1-2">
		<path class="st0" d="M404.7,58.2c1.4,2,2.9,3.8,4.6,5.4h-47.1c0-1.8-1.8-5.5-3.8-8.5s-12.8-18.9-12.8-18.9v22
			c-0.1,1.9,0.2,3.7,0.9,5.4h-39.2c0.8-1.7,1.1-3.6,0.9-5.4V5.9c0.1-1.9-0.2-3.7-0.9-5.4h39.2c-0.8,1.7-1.1,3.6-0.9,5.4v22.8
			c0,0,12.5-16,15.5-19.7c2.2-2.8,4.9-6.8,4.9-8.6h40.9c-3.2,2.3-6,5.1-8.5,8.2l-15,17.9C383.4,26.5,402.2,54.6,404.7,58.2z"/>
		<path class="st0" d="M417.1,5.9v52.3c0.1,1.9-0.2,3.7-0.9,5.4h75.7V46.1c-1.8,0.7-3.7,1.1-5.5,0.9h-31.9v-8.3h30.6V25.4h-30.6
			v-8.3h31.9c1.9-0.1,3.8,0.2,5.5,0.9V0.4h-75.7C416.9,2.2,417.2,4.1,417.1,5.9z"/>
		<path class="st0" d="M599.9,63.6c-1.4-1.6-2.4-3.4-3.1-5.4C595.5,54.7,577.9,10,576.3,6c-0.7-1.8-1.7-3.6-1.2-5.4h-54.7
			c0.2,1.8-0.4,3.6-1.1,5.4l-19.4,52.3c-0.6,2-1.6,3.8-2.9,5.4h32.4c-0.2-1.8,0.4-3.6,1.1-5.4s1.3-3.6,1.3-3.6l0.4-1h23.7l0.4,0.9
			c0.9,2.1,1.5,3.6,1.5,3.6c0.9,1.7,1.3,3.5,1.2,5.4L599.9,63.6z M537,40.3c2.8-7.6,5.2-14,5.4-14.6c0.5-1.3,0.9-2.7,1.1-4.1
			c0.3,1.4,0.7,2.8,1.2,4.1l5.7,14.6H537z"/>
		<path class="st0" d="M205.2,63.6c-1.4-1.6-2.4-3.4-3.1-5.4C200.8,54.7,183.3,10,181.7,6c-0.7-1.8-1.7-3.6-1.2-5.4h-54.7
			c0.2,1.8-0.4,3.6-1.1,5.4l-19.4,52.3c-0.6,2-1.6,3.8-2.9,5.4h32.4c-0.2-1.8,0.4-3.6,1.1-5.4s1.3-3.6,1.3-3.6l0.4-1h23.7l0.4,0.9
			c0.9,2.1,1.5,3.6,1.5,3.6c0.9,1.7,1.3,3.5,1.2,5.4L205.2,63.6z M142.4,40.3c2.8-7.6,5.2-14,5.4-14.6c0.5-1.3,0.9-2.7,1.1-4.1
			c0.3,1.4,0.7,2.8,1.2,4.1l5.7,14.6H142.4z"/>
		<path class="st0" d="M96.7,5.9c-0.1-1.9,0.2-3.7,0.9-5.4H58.4c0.8,1.7,1.1,3.6,0.9,5.4v19.5H38.4V5.9c-0.1-1.9,0.2-3.7,0.9-5.4
			H0.1C0.9,2.2,1.2,4.1,1,5.9v52.3c0.1,1.9-0.2,3.7-0.9,5.4h39.2c-0.8-1.7-1.1-3.6-0.9-5.4V38.7h20.9v19.5c0.1,1.9-0.2,3.7-0.9,5.4
			h39.2c-0.8-1.7-1.1-3.6-0.9-5.4V5.9z"/>
		<path class="st0" d="M299.5,25.6c-12.1-7.5-52-10.1-52,6.4c0,17.7,43.7,11.6,52,6.3V61c0,0-9.5,3-35.2,3s-64.8-9-64.8-32
			s39.8-32,61.9-32c12.8-0.1,25.5,0.9,38.1,2.9V25.6z"/>
	</g>
</g>
</svg>
