<svg width="1025" height="673" viewBox="0 0 1025 673" fill="none" xmlns="http://www.w3.org/2000/svg">
<rect width="1025" height="673" fill="none"/>
<path fill-rule="evenodd" clip-rule="evenodd" d="M792.423 48.154C825.912 53.699 853.242 63.354 877.878 78.346C907.678 96.48 929.186 116.57 945.644 141.645C964.16 169.855 974.396 203.38 977.941 247.424C981.499 291.629 970.149 337.981 947.089 373.424C931.262 397.749 908.237 419.91 881.878 436.187C871.557 442.561 849.51 452.944 836.878 457.38C807.719 467.621 774.316 472.87 737.878 472.937C719.04 472.972 715.786 473.848 709.994 480.444C705.287 485.806 703.878 489.791 703.878 497.747C703.878 508.109 702.039 529.338 700.312 538.924C692.884 580.135 674.519 604.921 641.242 618.644L632.378 622.3L606.878 623.01C558.258 624.364 311.897 626.073 214.378 625.733C104.149 625.348 112.538 625.93 95.3783 617.481C74.3463 607.126 59.2623 588.826 52.8853 565.924C50.2873 556.597 49.4093 538.384 47.7503 459.424C46.1653 383.987 46.1423 64.092 47.7223 58.389C48.9113 54.096 53.7493 48.686 57.8783 47.033C59.5343 46.37 182.298 46.11 421.378 46.262C752.637 46.472 783.206 46.628 792.423 48.154ZM723.378 121.859C718.819 122.969 714.717 125.4 711.179 129.089C704.459 136.094 704.876 127.389 704.9 260.142C704.921 375.182 705.003 380.598 706.778 384.424C709.113 389.457 714.2 394.331 719.367 396.487C726.278 399.369 778.066 398.324 800.646 394.845C831.069 390.159 864.545 368.171 882.794 340.889C897.759 318.516 904.391 298.705 905.546 272.924C907.11 238.027 900.116 207.92 884.729 183.309C862.071 147.069 829.532 126.041 789.802 121.964C778.48 120.802 728.047 120.722 723.378 121.859Z" fill="white"/>
<path fill-rule="evenodd" clip-rule="evenodd" d="M45.2613 2.312C26.3223 8.466 11.4483 22.704 4.25534 41.563C-0.0526643 52.857 -0.337662 68.998 0.203338 270.424C0.833338 505.04 2.00534 554.459 7.45134 575.924C19.6223 623.897 55.8943 658.589 106.378 670.542C112.228 671.927 121.343 672.274 161.878 672.656C211.967 673.127 519.713 671.239 594.878 670L637.378 669.3L647.378 666.019C689.288 652.271 719.497 624.452 735.622 584.757C742.48 567.874 745.901 552.676 749.484 523.174L750.001 518.924H757.833C762.141 518.924 770.326 518.463 776.022 517.899C901.321 505.496 994.697 429.091 1019.28 318.858C1030.46 268.679 1024.39 201.089 1004.41 153.437C986.472 110.655 956.676 74.908 916.594 48.087C879.502 23.266 845.64 9.737 801.878 2.256C791.925 0.555001 772.14 0.449 421.878 0.23L52.3783 0L45.2613 2.312ZM792.423 48.154C825.912 53.699 853.242 63.354 877.878 78.346C907.678 96.48 929.186 116.57 945.644 141.645C964.16 169.855 974.396 203.38 977.941 247.424C981.499 291.629 970.149 337.981 947.089 373.424C931.262 397.749 908.237 419.91 881.878 436.187C871.557 442.561 849.51 452.944 836.878 457.38C807.719 467.621 774.316 472.87 737.878 472.937C719.04 472.972 715.786 473.848 709.994 480.444C705.287 485.806 703.878 489.791 703.878 497.747C703.878 508.109 702.039 529.338 700.312 538.924C692.884 580.135 674.519 604.921 641.242 618.644L632.378 622.3L606.878 623.01C558.258 624.364 311.897 626.073 214.378 625.733C104.149 625.348 112.538 625.93 95.3783 617.481C74.3463 607.126 59.2623 588.826 52.8853 565.924C50.2873 556.597 49.4093 538.384 47.7503 459.424C46.1653 383.987 46.1423 64.092 47.7223 58.389C48.9113 54.096 53.7493 48.686 57.8783 47.033C59.5343 46.37 182.298 46.11 421.378 46.262C752.637 46.472 783.206 46.628 792.423 48.154ZM723.378 121.859C718.819 122.969 714.717 125.4 711.179 129.089C704.459 136.094 704.876 127.389 704.9 260.142C704.921 375.182 705.003 380.598 706.778 384.424C709.113 389.457 714.2 394.331 719.367 396.487C726.278 399.369 778.066 398.324 800.646 394.845C831.069 390.159 864.545 368.171 882.794 340.889C897.759 318.516 904.391 298.705 905.546 272.924C907.11 238.027 900.116 207.92 884.729 183.309C862.071 147.069 829.532 126.041 789.802 121.964C778.48 120.802 728.047 120.722 723.378 121.859ZM797.378 170.307C827.619 178.72 850.821 205.67 857.321 239.935C859.659 252.26 859.42 276.103 856.852 286.817C853.06 302.635 844.01 318.189 832.581 328.531C821.134 338.89 805.577 346.836 792.847 348.827C787.385 349.681 758.272 351.924 752.645 351.924C750.968 351.924 750.878 347.21 750.878 259.821V167.719L771.128 168.178C785.788 168.511 793.034 169.098 797.378 170.307Z" fill="black"/>
<path fill-rule="evenodd" clip-rule="evenodd" d="M459.378 167.963C435.005 171.756 407.553 185.912 385.566 206.024L377.754 213.17L368.566 204.176C350.485 186.476 327.313 174.606 302.394 170.277C288.236 167.818 260.491 168.833 247.687 172.279C229.197 177.255 210.694 186.755 199.413 197.066C185.966 209.356 176.475 230.168 173.792 253.25C170.403 282.398 179.354 318.432 196.19 343.424C209.719 363.507 296.86 450.597 354.009 501.149C363.156 509.241 370.904 516.55 371.227 517.392C371.645 518.479 373.237 518.924 376.709 518.924C380.646 518.924 382.344 518.335 385.394 515.911C394.868 508.383 439.282 465.66 480.432 424.495C538.666 366.238 552.607 350.577 563.074 331.657C583.091 295.477 585.802 254.694 570.255 223.636C557.497 198.151 532.624 178.579 502.486 170.31C492.187 167.485 470.158 166.286 459.378 167.963Z" fill="url(#paint0_linear_0_1)"/>
<defs>
<linearGradient id="paint0_linear_0_1" x1="377" y1="127" x2="377" y2="550" gradientUnits="userSpaceOnUse">
<stop offset="0.208333" stop-color="#FF5D74"/>
<stop offset="1" stop-color="#FF5E5B"/>
</linearGradient>
</defs>
</svg>
