<?xml version="1.0" encoding="utf-8"?>
<svg version="1.1" id="Layer_1" xmlns="http://www.w3.org/2000/svg" xmlns:xlink="http://www.w3.org/1999/xlink" x="0px" y="0px"
	 viewBox="0 0 500 500" style="enable-background:new 0 0 500 500;" xml:space="preserve">
<style type="text/css">
	.st0{fill:#F17F21;}
	.st1{fill:#EDB420;}
	.st2{fill:#F7CB6D;}
	.st3{fill:#EA395A;}
	.st4{fill:#BC3749;}
	.st5{fill:#1C3F57;}
	.st6{fill:#325E78;}
	.st7{fill:#E7C634;}
	.st8{fill:#CEAE2D;}
	.st9{fill:#84D0D1;}
	.st10{fill:#A7DDE3;}
</style>
<g>
	<path class="st0" d="M95,300.6c-35.6,0-83.6-50.5-83.6-50.5s48-50.5,83.6-50.5s45.4,22.6,45.4,50.5S130.6,300.6,95,300.6z"/>
	<path class="st1" d="M102,285c-24.6,0-57.7-34.9-57.7-34.9s33.1-34.9,57.7-34.9s31.4,15.6,31.4,34.9S126.6,285,102,285z"/>
	<path class="st2" d="M113.7,270.4c-14.2,0-33.5-20.2-33.5-20.2s19.2-20.2,33.5-20.2s18.1,9.1,18.1,20.2
		C131.9,261.2,128,270.4,113.7,270.4z"/>
	<g>
		<g>
			<path class="st3" d="M222.4,208.9c0,0-36.5-69.5-115.5-69.5c0,0-8.7,4.4,1.8,11.3s39.1,13.1,39.1,57.3L222.4,208.9z"/>
			<path class="st4" d="M222.4,291c0,0-36.5,69.5-115.5,69.5c0,0-8.7-4.4,1.8-11.3c10.5-7,39.1-13,39.1-57.4L222.4,291z"/>
		</g>
		<g>
			<path class="st5" d="M299.2,327.2c32.3,0,62.8-5.5,89.5-13.6v-63.6h-27.1c0,23.5-19.1,42.6-42.6,42.6
				c-23.5,0-42.5-19.1-42.5-42.6H139.7v41.6C173.3,313,232.2,327.2,299.2,327.2z"/>
			<path class="st6" d="M319.1,207.3c23.5,0,42.6,19.1,42.6,42.6h27.1v-63.6c-26.7-8.1-57.2-13.6-89.5-13.6
				c-67,0-125.9,14.2-159.5,35.6v41.6h136.8C276.6,226.4,295.6,207.3,319.1,207.3z"/>
			<path class="st7" d="M139.6,208.9c0-1.1-0.9-1.9-2-1.9h-9.1c-1,0-2,0.9-2,1.9v41h13L139.6,208.9L139.6,208.9z"/>
			<path class="st8" d="M139.6,291v-41h-13v41c0,1,0.9,2,2,2h9.1C138.7,292.9,139.6,292,139.6,291z"/>
			<path class="st8" d="M319.1,279.1c-16.1,0-29.2-13-29.2-29.2h-13.4c0,23.5,19.1,42.6,42.6,42.6c23.5,0,42.6-19,42.6-42.5h-13.4
				C348.2,266.1,335.2,279.1,319.1,279.1z"/>
			<path class="st7" d="M319.1,207.3c-23.5,0-42.6,19.1-42.6,42.6H290c0-16.1,13.1-29.1,29.2-29.1c16.1,0,29.1,13.1,29.1,29.1h13.4
				C361.6,226.4,342.6,207.3,319.1,207.3z"/>
			<path class="st9" d="M319.1,279.1c16.1,0,29.1-13,29.1-29.2H290C290,266.1,303,279.1,319.1,279.1z"/>
			<path class="st10" d="M319.1,220.8c-16.1,0-29.2,13.1-29.2,29.1h58.4C348.2,233.8,335.2,220.8,319.1,220.8z"/>
		</g>
	</g>
	<g>
		<path class="st4" d="M488.6,249.9h-99.9v63.5C448.1,295.4,488.6,263.9,488.6,249.9z"/>
		<path class="st3" d="M488.6,249.9c0-13.9-40.4-45.4-99.9-63.6v63.6H488.6L488.6,249.9z"/>
		<path class="st4" d="M200.7,252.6c0-0.2,0.1-0.4,0.1-0.6v-0.1v-2h-97.6v2.2v0.1c0,1.2,1,2.2,2.2,2.2h3l4.3,0.1l78.5,6.2
			C199.2,260.7,200.4,254.1,200.7,252.6z"/>
		<path class="st3" d="M200.9,247.8L200.9,247.8c0-0.3,0-0.5-0.1-0.7c-0.1-0.4-0.2-0.9-0.5-1.2c-0.8-2.4-2.9-6.6-9.1-6.6l-78.5,6.1
			l-4,0.1h-3c-1,0-1.8,0.6-2,1.4c-0.2,0.3-0.3,0.7-0.3,1.1v0.1v1.9h97.5V247.8L200.9,247.8z"/>
	</g>
</g>
</svg>
